<svg width="191" height="103" fill="none" xmlns="http://www.w3.org/2000/svg"><path d="M11.649 39.332L8.292 49H.37l13.803-37.84h9.346L37.269 49h-7.842l-3.357-9.668H11.65zm7.197-22.344a41.61 41.61 0 01-.752 2.578c-.322 1.003-.555 1.71-.698 2.122L13.421 33.37h10.877l-4.082-11.924a46.068 46.068 0 01-.698-2.229 81.244 81.244 0 00-.672-2.229zm5.344-9.91v.833h-4.538L10.52 1.412V.257h6.929l6.74 6.822zm9.615 66.06c0 2.453-.564 4.628-1.692 6.526-1.11 1.88-2.695 3.357-4.754 4.431-2.059 1.056-4.511 1.585-7.358 1.585h-9.4V99H2.68V61.16h17c4.53 0 8.012 1.048 10.447 3.143 2.452 2.077 3.679 5.022 3.679 8.835zm-7.976.134c0-3.974-2.346-5.962-7.037-5.962h-8.19v12.273h8.405c2.185 0 3.867-.537 5.05-1.61 1.18-1.093 1.772-2.66 1.772-4.7zM47.07 84.74V99h-7.546V76.764a80.75 80.75 0 00-.08-3.975 90.81 90.81 0 00-.135-2.847h7.197c.036.162.072.52.108 1.075.036.555.071 1.181.107 1.88.036.68.063 1.324.08 1.933.037.609.054 1.047.054 1.316h.108c.716-2.005 1.37-3.447 1.96-4.324.573-.841 1.254-1.459 2.041-1.853.788-.394 1.773-.59 2.954-.59.967 0 1.746.134 2.337.402v6.311c-1.2-.268-2.274-.403-3.223-.403-1.88 0-3.348.761-4.404 2.283-1.038 1.522-1.558 3.778-1.558 6.768zm41.492-.296c0 4.709-1.307 8.406-3.92 11.092-2.615 2.667-6.231 4.001-10.85 4.001-4.53 0-8.084-1.343-10.662-4.028-2.578-2.686-3.867-6.374-3.867-11.065 0-4.672 1.289-8.343 3.867-11.01 2.578-2.686 6.186-4.029 10.823-4.029 4.744 0 8.36 1.298 10.85 3.894 2.506 2.578 3.759 6.293 3.759 11.145zm-7.895 0c0-3.455-.565-5.962-1.692-7.52-1.128-1.557-2.766-2.336-4.915-2.336-2.292 0-4.01.824-5.156 2.471-1.146 1.63-1.719 4.091-1.719 7.385 0 3.24.555 5.712 1.665 7.412 1.128 1.683 2.748 2.525 4.86 2.525 2.328 0 4.065-.824 5.21-2.47 1.165-1.666 1.746-4.154 1.746-7.467zm13.095 17.746c-3.006 0-4.62-1.21-4.84-3.63-.036-1.027.239-1.943.825-2.75.624-.843 1.412-1.265 2.365-1.265.697 0 1.302.293 1.815.88.477.55.715 1.137.715 1.76 0 1.723-.806 2.585-2.42 2.585a2.55 2.55 0 01-1.155-.275c-.33-.147-.586-.403-.77-.77.22 1.32 1.32 1.98 3.3 1.98.44 0 .844-.055 1.21-.165 3.154-.843 5.812-2.658 7.975-5.445.954-1.21 2.017-2.933 3.19-5.17 1.174-2.237 2.475-4.95 3.905-8.14l7.26-16.115c.367-.807.77-1.522 1.21-2.145.477-.66.972-1.283 1.485-1.87-4.473-.147-9.038.55-13.695 2.09-4.913 1.65-8.506 3.887-10.78 6.71-1.063 1.357-1.595 2.603-1.595 3.74 0 2.31 1.669 3.465 5.005 3.465 4.107 0 7.444-1.613 10.01-4.84.624-.77 1.21-1.687 1.76-2.75.587-1.1 1.119-2.383 1.595-3.85.11-.257.257-.385.44-.385.294 0 .385.202.275.605l-.44 1.43c-.11.477-.256.935-.44 1.375a16.61 16.61 0 01-1.045 2.475 16.102 16.102 0 01-1.32 2.035c-2.456 3.447-5.94 5.17-10.45 5.17-2.09 0-3.721-.55-4.895-1.65-1.21-1.1-1.815-2.475-1.815-4.125 0-1.467.514-2.97 1.54-4.51 1.724-2.603 5.097-4.675 10.12-6.215a46 46 0 016.82-1.485c2.384-.367 4.84-.55 7.37-.55h1.375c.477 0 .935.018 1.375.055 2.237-1.943 4.565-2.915 6.985-2.915.954 0 1.925.202 2.915.605.184.073.275.22.275.44 0 .44-.128.605-.385.495-.66-.33-1.393-.495-2.2-.495-1.796 0-3.501.715-5.115 2.145 3.007.037 5.354.678 7.04 1.925 2.384 1.76 3.465 3.832 3.245 6.215-.33 3.74-2.658 6.783-6.985 9.13-3.3 1.833-6.71 2.75-10.23 2.75h-.825c-.256 0-.531-.018-.825-.055a35.556 35.556 0 01-1.1 2.915c-.476 1.1-1.045 2.347-1.705 3.74-1.503 3.19-3.758 6.252-6.765 9.185-3.886 3.777-7.755 5.665-11.605 5.665zm22.77-22.66c2.494 0 4.859-.77 7.095-2.31 2.09-1.43 3.795-3.373 5.115-5.83.587-1.1.88-2.163.88-3.19 0-1.833-.733-3.355-2.2-4.565-1.466-1.173-3.208-1.687-5.225-1.54-.623.807-1.301 2.017-2.035 3.63-.733 1.577-1.503 3.557-2.31 5.94-.44 1.283-.861 2.585-1.265 3.905-.403 1.32-.806 2.622-1.21 3.905.184.037.367.055.55.055h.605zm14.274 4.807c0-2.507.617-4.933 1.853-7.278 1.235-2.345 2.981-4.136 5.236-5.371 2.274-1.235 4.808-1.853 7.601-1.853 4.314 0 7.85 1.405 10.607 4.216 2.758 2.793 4.136 6.33 4.136 10.608 0 4.315-1.396 7.896-4.189 10.742-2.775 2.83-6.275 4.243-10.501 4.243-2.614 0-5.111-.59-7.492-1.772-2.364-1.182-4.163-2.91-5.398-5.183-1.236-2.292-1.853-5.076-1.853-8.352zm7.734.403c0 2.829.671 4.995 2.014 6.499 1.343 1.504 2.999 2.256 4.968 2.256 1.97 0 3.617-.752 4.942-2.256 1.343-1.504 2.014-3.688 2.014-6.553 0-2.793-.671-4.941-2.014-6.445-1.325-1.504-2.972-2.256-4.942-2.256-1.969 0-3.625.752-4.968 2.256-1.343 1.504-2.014 3.67-2.014 6.499zm24.976 6.123l7.573-1.155c.322 1.468.976 2.587 1.96 3.357.985.752 2.364 1.128 4.136 1.128 1.952 0 3.42-.358 4.404-1.074.663-.502.994-1.173.994-2.014 0-.573-.179-1.048-.537-1.424-.376-.358-1.218-.69-2.525-.993-6.087-1.343-9.945-2.57-11.574-3.68-2.256-1.54-3.384-3.679-3.384-6.418 0-2.47.976-4.548 2.927-6.23 1.952-1.684 4.977-2.525 9.077-2.525 3.903 0 6.804.636 8.702 1.907 1.897 1.27 3.204 3.15 3.92 5.64l-7.116 1.315c-.305-1.11-.886-1.96-1.746-2.551-.841-.59-2.05-.886-3.625-.886-1.988 0-3.411.277-4.27.832-.573.394-.86.904-.86 1.531 0 .537.251.994.752 1.37.681.501 3.026 1.208 7.036 2.121 4.029.913 6.84 2.032 8.433 3.357 1.575 1.343 2.363 3.214 2.363 5.613 0 2.614-1.092 4.86-3.276 6.74-2.184 1.88-5.416 2.82-9.695 2.82-3.885 0-6.964-.787-9.238-2.363-2.256-1.575-3.733-3.715-4.431-6.418z" fill="#ADFF2F"/></svg>