<svg width="165" height="44" fill="none" xmlns="http://www.w3.org/2000/svg"><path d="M11.649 30.332L8.292 40H.37L14.173 2.16h9.346L37.269 40h-7.842l-3.357-9.668H11.65zm7.197-22.344a41.6 41.6 0 01-.752 2.578c-.322 1.003-.555 1.71-.698 2.122L13.421 24.37h10.877l-4.082-11.924a46.068 46.068 0 01-.698-2.229 81.33 81.33 0 00-.672-2.229zM42.372 40V.63h7.546v14.18c2.327-2.65 5.085-3.975 8.272-3.975 3.473 0 6.346 1.262 8.62 3.787 2.274 2.506 3.41 6.114 3.41 10.822 0 4.87-1.163 8.62-3.49 11.253-2.31 2.632-5.121 3.947-8.433 3.947-1.63 0-3.24-.402-4.834-1.208-1.576-.824-2.936-2.032-4.082-3.626V40h-7.01zm7.492-14.878c0 2.954.466 5.138 1.397 6.553 1.307 2.005 3.043 3.008 5.21 3.008 1.665 0 3.08-.708 4.243-2.122 1.181-1.432 1.772-3.68 1.772-6.74 0-3.26-.59-5.605-1.772-7.037-1.182-1.45-2.695-2.175-4.539-2.175-1.808 0-3.312.707-4.511 2.121-1.2 1.397-1.8 3.527-1.8 6.392zm39.61 18.398c-3.666 0-6.453-1.063-8.36-3.19-1.98-2.163-2.97-5.06-2.97-8.69 0-4.033 1.137-8.177 3.41-12.43a18.13 18.13 0 01-3.19-1.485 12.918 12.918 0 01-2.585-2.09c-1.796-1.833-2.695-3.85-2.695-6.05 0-2.2.99-3.868 2.97-5.005 1.65-.99 3.648-1.485 5.995-1.485 4.07 0 7.663 1.32 10.78 3.96 5.207-3.447 10.56-5.17 16.06-5.17 5.133 0 7.7 1.393 7.7 4.18 0 1.173-.495 2.475-1.485 3.905.917 1.503 1.375 3.41 1.375 5.72 0 3.153-.88 6.527-2.64 10.12-2.603 5.17-5.867 9.313-9.79 12.43-4.437 3.52-9.295 5.28-14.575 5.28zm.935-24.53c.88 0 1.723-.037 2.53-.11a26.787 26.787 0 002.475-.33 35.972 35.972 0 007.535-2.365 33.563 33.563 0 006.93-4.125c.33-.257.642-.513.935-.77l.825-.825c-1.173-1.613-2.658-2.42-4.455-2.42-.953 0-1.98.257-3.08.77a.764.764 0 01-.33.055c-.257 0-.385-.11-.385-.33 0-.293.202-.532.605-.715 1.87-.733 3.538-1.1 5.005-1.1 1.723 0 3.208.477 4.455 1.43.513-.953.77-1.833.77-2.64 0-1.65-1.283-2.475-3.85-2.475-4.84 0-9.863 2.182-15.07 6.545A19.078 19.078 0 0197.23 12.5c.183.293.11.458-.22.495h-.165c-.293 0-.495-.11-.605-.33l-1.87-2.31a44.371 44.371 0 00-3.85 4.015 39.578 39.578 0 00-3.245 4.455 30.46 30.46 0 003.135.165zm-8.085-1.21c2.383-3.887 5.482-7.187 9.295-9.9-3.373-2.493-6.765-3.74-10.175-3.74-1.76 0-3.227.422-4.4 1.265-1.32.917-1.98 2.237-1.98 3.96 0 3.997 2.42 6.802 7.26 8.415zm8.25 24.64c4.107 0 8.159-1.778 12.155-5.335a35.24 35.24 0 004.62-5.005 35.919 35.919 0 003.795-6.05c1.54-3.08 2.31-6.123 2.31-9.13 0-1.65-.238-3.08-.715-4.29-2.713 2.53-6.252 4.51-10.615 5.94-4.07 1.283-8.103 1.925-12.1 1.925a28.598 28.598 0 01-3.63-.22c-2.566 4.437-3.85 8.617-3.85 12.54 0 2.86.605 5.115 1.815 6.765 1.357 1.907 3.428 2.86 6.215 2.86zM135.641 40v-4.27c-1.039 1.522-2.408 2.721-4.109 3.599a11.403 11.403 0 01-5.344 1.316c-1.916 0-3.635-.421-5.157-1.263-1.522-.841-2.623-2.023-3.303-3.545-.68-1.521-1.02-3.625-1.02-6.31V11.478h7.546v13.106c0 4.01.134 6.472.403 7.385a4.153 4.153 0 001.531 2.149c.734.519 1.665.779 2.792.779 1.29 0 2.444-.35 3.465-1.048 1.02-.716 1.719-1.593 2.095-2.632.376-1.056.564-3.625.564-7.707V11.48h7.546V40h-7.009zm27.929-28.52v6.015h-5.156V28.99c0 2.328.045 3.688.134 4.082.108.376.332.69.672.94.358.25.787.376 1.289.376.698 0 1.71-.242 3.034-.725l.645 5.855c-1.755.752-3.742 1.127-5.962 1.127-1.361 0-2.587-.223-3.679-.67-1.092-.466-1.898-1.057-2.417-1.773-.501-.734-.851-1.72-1.047-2.954-.162-.878-.242-2.65-.242-5.318V17.495h-3.465V11.48h3.465V5.813l7.573-4.404v10.07h5.156z" fill="#ADFF2F"/></svg>