<svg width="198" height="100" fill="none" xmlns="http://www.w3.org/2000/svg"><path d="M11.649 28.332L8.292 38H.37L14.173.16h9.346L37.269 38h-7.842l-3.357-9.668H11.65zm7.197-22.344c-.179.716-.43 1.576-.752 2.578a108.6 108.6 0 01-.698 2.122L13.421 22.37h10.877l-4.082-11.924a46.037 46.037 0 01-.698-2.229 81.34 81.34 0 00-.672-2.229zm42.217 26.238c-1.003 2.202-2.283 3.805-3.84 4.807-1.54 1.003-3.375 1.504-5.506 1.504-3.08 0-5.442-.94-7.09-2.82-1.647-1.898-2.47-4.673-2.47-8.325V8.942h7.546v16.302c0 2.542.43 4.458 1.29 5.747.859 1.27 2.148 1.907 3.866 1.907 1.826 0 3.295-.78 4.405-2.337 1.128-1.576 1.692-3.59 1.692-6.042V8.942h7.546v22.559c0 1.235.018 2.4.054 3.491.035 1.074.09 2.077.16 3.008H61.52a124.72 124.72 0 01-.242-3.384 44.644 44.644 0 01-.08-2.39h-.135zm28.95 5.344c-1.826.609-3.948.913-6.365.913-2.22 0-3.93-.6-5.129-1.799-1.2-1.217-1.8-3.052-1.8-5.505V14.045h-3.678V8.942h4.055l2.363-6.82h4.727v6.82h5.505v5.103h-5.505v15.093c0 1.414.268 2.461.805 3.142.537.662 1.37.993 2.498.993.537 0 1.378-.125 2.524-.376v4.673zm12.058-13.83V38h-7.546V15.764a80.75 80.75 0 00-.08-3.975 90.806 90.806 0 00-.135-2.847h7.197c.036.162.072.52.108 1.075.036.555.071 1.181.107 1.88.036.68.063 1.324.081 1.933.036.609.053 1.047.053 1.316h.108c.716-2.005 1.369-3.447 1.96-4.324.573-.841 1.254-1.459 2.041-1.853.788-.394 1.773-.59 2.954-.59.967 0 1.746.134 2.337.402v6.311c-1.2-.268-2.274-.402-3.223-.402-1.88 0-3.348.76-4.404 2.282-1.039 1.522-1.558 3.778-1.558 6.768zm20.115 1.181c0 2.83.519 4.969 1.558 6.419 1.056 1.432 2.551 2.148 4.485 2.148 1.324 0 2.408-.286 3.249-.86.859-.59 1.459-1.458 1.799-2.604l7.117.618c-2.059 5.263-6.239 7.895-12.541 7.895-4.369 0-7.726-1.289-10.071-3.867-2.346-2.596-3.518-6.374-3.518-11.333 0-4.798 1.19-8.486 3.571-11.064 2.382-2.579 5.756-3.868 10.125-3.868 4.172 0 7.358 1.388 9.561 4.163 2.202 2.757 3.303 6.803 3.303 12.138v.215h-18.638zm11.333-4.726c-.143-2.346-.707-4.1-1.692-5.264-.985-1.181-2.309-1.772-3.974-1.772-1.773 0-3.143.617-4.109 1.853-.949 1.235-1.451 2.963-1.504 5.183h11.279zm37.544 9.319c0 2.81-1.155 5.022-3.464 6.633-2.292 1.593-5.47 2.39-9.534 2.39-3.993 0-7.054-.627-9.185-1.88-2.112-1.27-3.518-3.24-4.216-5.908l6.633-.994c.376 1.379 1.021 2.355 1.934 2.928.931.572 2.542.859 4.834.859 2.113 0 3.652-.269 4.619-.806.967-.537 1.45-1.378 1.45-2.524 0-.931-.394-1.665-1.181-2.202-.77-.555-2.086-1.02-3.948-1.397a116.124 116.124 0 01-3.814-.832 47.256 47.256 0 01-2.873-.779 20.254 20.254 0 01-1.934-.752c-1.486-.734-2.623-1.674-3.41-2.82-.77-1.146-1.155-2.56-1.155-4.243 0-2.775 1.065-4.932 3.196-6.472 2.148-1.558 5.183-2.337 9.104-2.337 3.455 0 6.23.672 8.325 2.015 2.112 1.342 3.428 3.285 3.948 5.827l-6.687.699c-.215-1.182-.743-2.06-1.585-2.632-.841-.591-2.175-.887-4.001-.887-1.791 0-3.133.233-4.029.699-.895.447-1.342 1.208-1.342 2.282 0 .842.34 1.513 1.02 2.014.698.484 1.862.887 3.491 1.209 2.274.466 4.288.949 6.043 1.45 1.772.484 3.196 1.066 4.27 1.746a7.712 7.712 0 012.524 2.632c.645 1.056.967 2.417.967 4.082zM33.805 62.138c0 2.453-.564 4.628-1.692 6.526-1.11 1.88-2.695 3.357-4.754 4.431-2.059 1.056-4.511 1.585-7.358 1.585h-9.4V88H2.68V50.16h17c4.53 0 8.012 1.048 10.447 3.143 2.452 2.077 3.679 5.022 3.679 8.835zm-7.976.135c0-3.975-2.346-5.963-7.037-5.963h-8.19v12.273h8.405c2.185 0 3.867-.537 5.05-1.61 1.18-1.093 1.772-2.66 1.772-4.7zM47.07 73.74V88h-7.546V65.764a80.75 80.75 0 00-.08-3.975 90.81 90.81 0 00-.135-2.847h7.197c.036.161.072.52.108 1.075.036.555.071 1.181.107 1.88.036.68.063 1.324.08 1.933.037.609.054 1.047.054 1.316h.108c.716-2.005 1.37-3.447 1.96-4.324.573-.841 1.254-1.459 2.041-1.853.788-.394 1.773-.59 2.954-.59.967 0 1.746.134 2.337.402v6.311c-1.2-.268-2.274-.403-3.223-.403-1.88 0-3.348.761-4.404 2.283-1.038 1.522-1.558 3.778-1.558 6.768zm41.492-.296c0 4.709-1.307 8.406-3.92 11.092-2.615 2.667-6.231 4.001-10.85 4.001-4.53 0-8.084-1.343-10.662-4.028-2.578-2.686-3.867-6.374-3.867-11.065 0-4.672 1.289-8.343 3.867-11.01 2.578-2.686 6.186-4.029 10.823-4.029 4.744 0 8.36 1.298 10.85 3.894 2.506 2.578 3.759 6.293 3.759 11.145zm-7.895 0c0-3.455-.565-5.962-1.692-7.52-1.128-1.557-2.766-2.336-4.915-2.336-2.292 0-4.01.824-5.156 2.471-1.146 1.63-1.719 4.091-1.719 7.385 0 3.24.555 5.712 1.665 7.412 1.128 1.683 2.748 2.525 4.86 2.525 2.328 0 4.065-.824 5.21-2.47 1.165-1.666 1.746-4.154 1.746-7.467zm8.75 25.776c-3.593 0-5.39-1.247-5.39-3.74a5.9 5.9 0 01.165-1.32c.697-3.483 4.052-6.38 10.065-8.69 1.907-.733 3.997-1.375 6.27-1.925 2.274-.587 4.749-1.082 7.425-1.485a82.818 82.818 0 002.42-4.62 151.02 151.02 0 002.915-6.215 331.363 331.363 0 012.97-6.435 228.249 228.249 0 001.815-3.685 60.16 60.16 0 012.2-3.96c.734-1.137 1.449-2.108 2.145-2.915 1.687-2.017 3.612-3.41 5.775-4.18a23.832 23.832 0 00-2.915-.275c-.99-.073-2.053-.11-3.19-.11-6.71 0-11.476.825-14.3 2.475-1.906 1.137-3.355 2.328-4.345 3.575-1.063 1.357-1.595 2.548-1.595 3.575 0 1.283.77 2.072 2.31 2.365.514.11 1.009.165 1.485.165 1.834 0 3.685-.458 5.555-1.375 1.87-.843 3.429-1.888 4.675-3.135.074-.073.147-.11.22-.11.147 0 .239.073.275.22.037.11 0 .257-.11.44a11.362 11.362 0 01-2.145 2.035 16.936 16.936 0 01-2.915 1.705c-2.2 1.027-4.326 1.54-6.38 1.54-1.613 0-3.006-.367-4.18-1.1-1.393-.843-2.09-2.017-2.09-3.52 0-1.357.569-2.677 1.705-3.96 3.41-3.923 10.12-5.885 20.13-5.885 1.614 0 3.172.055 4.675.165 1.504.11 2.97.293 4.4.55 1.394-.403 2.53-.605 3.41-.605 1.797 0 2.695.477 2.695 1.43 0 .44-.256.825-.77 1.155-.476.293-1.063.44-1.76.44-.403 0-.898-.11-1.485-.33-.55-.22-1.21-.568-1.98-1.045-1.796.66-3.226 1.797-4.29 3.41-.77 1.137-1.723 3.263-2.86 6.38-1.1 3.043-1.961 5.408-2.585 7.095-.586 1.687-.953 2.695-1.1 3.025a140.03 140.03 0 01-2.53 5.995 80.709 80.709 0 01-2.53 5.06 55.104 55.104 0 013.96-.165c.477 0 .917.018 1.32.055.404 0 .789.018 1.155.055.44.037.66.147.66.33 0 .293-.275.44-.825.44-2.126-.037-4.418.073-6.875.33-4.876 8.543-10.688 13.805-17.435 15.785-2.2.66-4.271.99-6.215.99zm-.055-1.32c1.65 0 3.484-.513 5.5-1.54 4.437-2.273 8.562-6.637 12.375-13.09-6.856 1.247-12.246 3.007-16.17 5.28-3.63 2.127-5.445 4.308-5.445 6.545 0 1.87 1.247 2.805 3.74 2.805zm52.025-18.977l7.519 1.262c-.967 2.757-2.497 4.86-4.592 6.311-2.077 1.432-4.682 2.148-7.815 2.148-4.959 0-8.63-1.62-11.011-4.86-1.88-2.596-2.82-5.873-2.82-9.83 0-4.726 1.236-8.423 3.706-11.09 2.471-2.686 5.595-4.029 9.373-4.029 4.243 0 7.591 1.405 10.044 4.216 2.453 2.793 3.625 7.081 3.518 12.864h-18.906c.054 2.238.662 3.984 1.826 5.237 1.164 1.235 2.614 1.853 4.351 1.853 1.181 0 2.175-.322 2.981-.967.805-.644 1.414-1.683 1.826-3.115zm.429-7.627c-.053-2.184-.617-3.84-1.692-4.968-1.074-1.146-2.381-1.72-3.92-1.72-1.648 0-3.008.6-4.082 1.8-1.075 1.2-1.603 2.829-1.585 4.888h11.279zm26.748-11.817v6.016h-5.156V76.99c0 2.328.045 3.688.134 4.082.108.376.332.69.672.94.358.25.788.376 1.289.376.698 0 1.71-.242 3.035-.725l.644 5.855c-1.754.752-3.742 1.127-5.962 1.127-1.36 0-2.587-.223-3.679-.67-1.092-.466-1.898-1.057-2.417-1.773-.501-.734-.85-1.72-1.047-2.954-.161-.878-.242-2.65-.242-5.318V65.495h-3.464V59.48h3.464v-5.666l7.573-4.404v10.07h5.156zm2.579 20.384l7.573-1.155c.322 1.468.976 2.587 1.96 3.357.985.752 2.364 1.128 4.136 1.128 1.951 0 3.42-.358 4.404-1.074.663-.502.994-1.173.994-2.014 0-.573-.179-1.048-.537-1.424-.376-.358-1.218-.69-2.525-.993-6.087-1.343-9.945-2.57-11.574-3.68-2.256-1.54-3.384-3.679-3.384-6.418 0-2.47.976-4.548 2.927-6.23 1.952-1.684 4.977-2.525 9.077-2.525 3.903 0 6.804.636 8.701 1.907 1.898 1.27 3.205 3.15 3.921 5.64l-7.116 1.315c-.305-1.11-.887-1.96-1.746-2.551-.841-.59-2.05-.886-3.625-.886-1.988 0-3.411.277-4.27.832-.573.394-.86.904-.86 1.531 0 .537.251.994.752 1.37.68.501 3.026 1.208 7.036 2.121 4.029.913 6.839 2.032 8.433 3.357 1.575 1.343 2.363 3.214 2.363 5.613 0 2.614-1.092 4.86-3.276 6.74-2.184 1.88-5.416 2.82-9.695 2.82-3.885 0-6.965-.787-9.238-2.363-2.256-1.575-3.733-3.715-4.431-6.418z" fill="#ADFF2F"/></svg>