<svg width="247" height="42" fill="none" xmlns="http://www.w3.org/2000/svg"><path d="M19.35 33.307c4.798 0 8.12-2.4 9.963-7.198l6.902 2.605c-1.486 3.653-3.67 6.374-6.552 8.164-2.865 1.773-6.303 2.66-10.313 2.66-4.046 0-7.493-.77-10.34-2.31-2.846-1.558-5.021-3.805-6.525-6.741C.999 27.55.255 24.024.255 19.906c0-4.154.717-7.663 2.15-10.528 1.432-2.864 3.544-5.04 6.337-6.525C11.535 1.349 14.955.597 19.001.597c4.44 0 8.057.895 10.85 2.685 2.793 1.773 4.753 4.387 5.88 7.842l-6.982 1.907c-.59-1.898-1.754-3.402-3.49-4.512-1.72-1.128-3.752-1.692-6.097-1.692-3.58 0-6.302 1.11-8.164 3.33-1.844 2.22-2.766 5.47-2.766 9.749 0 2.9.42 5.344 1.262 7.331.86 1.988 2.113 3.5 3.76 4.539 1.665 1.02 3.697 1.53 6.096 1.53zm49.844-8.863c0 4.709-1.307 8.406-3.921 11.092-2.614 2.667-6.23 4.001-10.85 4.001-4.53 0-8.083-1.343-10.661-4.028-2.578-2.686-3.867-6.374-3.867-11.065 0-4.672 1.289-8.343 3.867-11.01 2.578-2.686 6.185-4.029 10.822-4.029 4.745 0 8.361 1.298 10.85 3.894 2.507 2.578 3.76 6.293 3.76 11.145zm-7.896 0c0-3.455-.564-5.962-1.692-7.52-1.128-1.557-2.766-2.336-4.914-2.336-2.292 0-4.01.824-5.156 2.471-1.146 1.63-1.72 4.091-1.72 7.385 0 3.24.556 5.712 1.666 7.412 1.128 1.683 2.748 2.525 4.86 2.525 2.328 0 4.065-.824 5.21-2.47 1.165-1.666 1.746-4.155 1.746-7.467zm21.458-1.02V39H75.21V16.441c0-1.557-.027-2.828-.081-3.813a83.942 83.942 0 00-.134-2.686h7.197c.036.215.08.726.134 1.531.054.788.099 1.602.134 2.444.054.824.081 1.423.081 1.8h.107c1.02-2.22 2.301-3.832 3.84-4.835 1.54-1.002 3.376-1.504 5.506-1.504 3.08 0 5.443.95 7.09 2.847 1.647 1.898 2.471 4.673 2.471 8.325V39h-7.52V22.699c0-2.56-.43-4.476-1.289-5.747-.86-1.272-2.157-1.907-3.894-1.907-1.826 0-3.303.788-4.431 2.363-1.11 1.558-1.665 3.563-1.665 6.016zm31.861 17.941c-2.896 0-4.931-.862-6.105-2.585-.403-.55-.605-1.265-.605-2.145 0-.99.312-1.852.935-2.585.734-.843 1.65-1.265 2.75-1.265.734 0 1.32.257 1.76.77.404.403.605.953.605 1.65 0 .88-.311 1.595-.935 2.145-.623.513-1.283.77-1.98.77-.623 0-1.191-.22-1.705-.66.624 1.393 1.742 2.09 3.355 2.09 3.777 0 7.315-2.457 10.615-7.37a74.448 74.448 0 002.475-3.795 143.018 143.018 0 002.42-4.235l2.2-4.18 2.2-4.18c3.007-5.683 6.325-9.057 9.955-10.12a164.498 164.498 0 01-4.18-.605c-1.356-.22-2.731-.44-4.125-.66a61.184 61.184 0 00-4.565-.55 45.397 45.397 0 00-3.63-.165c-4.326 0-7.828.898-10.505 2.695-1.54 1.027-2.768 2.273-3.685 3.74-.953 1.503-1.43 2.952-1.43 4.345 0 3.227 2.164 4.84 6.49 4.84 1.467 0 2.934-.275 4.4-.825 1.467-.587 2.97-1.412 4.51-2.475a26.749 26.749 0 003.575-3.19 22.937 22.937 0 002.915-4.015c.184-.293.422-.44.715-.44.44 0 .569.165.385.495a22.063 22.063 0 01-2.695 4.62 19.511 19.511 0 01-3.74 3.63c-2.933 2.127-6.178 3.19-9.735 3.19-1.576 0-2.988-.202-4.235-.605-1.246-.44-2.291-1.1-3.135-1.98-1.393-1.467-2.09-3.227-2.09-5.28 0-1.797.55-3.538 1.65-5.225 1.1-1.723 2.659-3.098 4.675-4.125 3.3-1.613 6.949-2.42 10.945-2.42 1.43 0 3.154.128 5.17.385 2.017.257 4.327.642 6.93 1.155 3.484.697 6.344 1.21 8.58 1.54 2.237.33 3.85.495 4.84.495 2.164 0 3.905-.385 5.225-1.155.22-.11.404-.165.55-.165.22 0 .33.147.33.44 0 .257-.146.477-.44.66-2.42 1.65-5.481 2.365-9.185 2.145L145.307 6c-3.52.403-6.435 3.447-8.745 9.13-3.08 7.517-4.913 11.843-5.5 12.98-2.456 4.767-5.371 8.36-8.745 10.78-2.31 1.65-4.876 2.475-7.7 2.475zm34.069-22.184l-6.848-1.236c.77-2.757 2.095-4.798 3.974-6.123 1.88-1.325 4.673-1.987 8.379-1.987 3.366 0 5.873.403 7.52 1.208 1.647.788 2.802 1.8 3.464 3.035.681 1.218 1.021 3.465 1.021 6.74l-.081 8.81c0 2.506.117 4.359.349 5.559.251 1.181.708 2.452 1.37 3.813h-7.466c-.197-.501-.438-1.244-.725-2.229a13.936 13.936 0 00-.268-.886c-1.29 1.253-2.668 2.193-4.136 2.82-1.468.626-3.035.94-4.7.94-2.936 0-5.255-.797-6.956-2.39-1.682-1.594-2.524-3.608-2.524-6.043 0-1.611.385-3.044 1.155-4.297.77-1.271 1.844-2.238 3.223-2.9 1.396-.68 3.401-1.271 6.015-1.773 3.527-.662 5.971-1.28 7.332-1.853v-.752c0-1.45-.358-2.48-1.075-3.088-.716-.627-2.067-.94-4.055-.94-1.342 0-2.39.268-3.142.806-.752.519-1.36 1.44-1.826 2.766zm10.098 6.123c-.967.322-2.498.707-4.593 1.155-2.094.447-3.464.886-4.108 1.315-.985.699-1.478 1.585-1.478 2.66 0 1.055.394 1.969 1.182 2.738.788.77 1.79 1.155 3.008 1.155 1.361 0 2.659-.447 3.894-1.343.913-.68 1.513-1.513 1.799-2.497.197-.645.296-1.871.296-3.68v-1.503zm39.746-6.392l-7.439 1.343c-.251-1.486-.824-2.605-1.719-3.357-.877-.752-2.023-1.128-3.437-1.128-1.88 0-3.384.654-4.512 1.96-1.11 1.29-1.665 3.456-1.665 6.5 0 3.383.564 5.773 1.692 7.17 1.146 1.396 2.676 2.095 4.592 2.095 1.432 0 2.605-.403 3.518-1.209.913-.823 1.558-2.229 1.934-4.216l7.412 1.262c-.77 3.402-2.247 5.97-4.431 7.708-2.185 1.736-5.112 2.605-8.782 2.605-4.172 0-7.502-1.316-9.99-3.948-2.471-2.632-3.706-6.276-3.706-10.93 0-4.71 1.244-8.37 3.732-10.984 2.489-2.632 5.855-3.948 10.098-3.948 3.473 0 6.231.752 8.272 2.256 2.059 1.486 3.536 3.76 4.431 6.821zm18.825-8.432v6.015h-5.156V27.99c0 2.328.045 3.688.134 4.082.108.376.332.69.672.94.358.25.788.376 1.289.376.698 0 1.71-.242 3.035-.725l.644 5.855c-1.754.752-3.742 1.127-5.962 1.127-1.36 0-2.587-.223-3.679-.67-1.092-.466-1.898-1.057-2.417-1.773-.501-.734-.85-1.72-1.047-2.954-.161-.878-.242-2.65-.242-5.318V16.495h-3.464V10.48h3.464V4.813l7.573-4.404v10.07h5.156zm2.579 20.383l7.573-1.155c.322 1.468.976 2.587 1.96 3.357.985.752 2.364 1.128 4.136 1.128 1.952 0 3.42-.358 4.404-1.074.663-.502.994-1.173.994-2.014 0-.573-.179-1.048-.537-1.424-.376-.358-1.218-.69-2.525-.994-6.087-1.342-9.945-2.569-11.574-3.679-2.256-1.54-3.384-3.679-3.384-6.418 0-2.47.976-4.548 2.927-6.23 1.952-1.684 4.977-2.525 9.077-2.525 3.903 0 6.804.635 8.702 1.907 1.897 1.27 3.204 3.15 3.92 5.64l-7.116 1.315c-.305-1.11-.887-1.96-1.746-2.551-.841-.59-2.05-.886-3.625-.886-1.988 0-3.411.277-4.27.832-.573.394-.86.904-.86 1.531 0 .537.251.994.752 1.37.681.501 3.026 1.208 7.036 2.121 4.029.913 6.84 2.032 8.433 3.357 1.575 1.343 2.363 3.214 2.363 5.613 0 2.614-1.092 4.86-3.276 6.74-2.184 1.88-5.416 2.82-9.695 2.82-3.885 0-6.964-.787-9.238-2.363-2.256-1.575-3.733-3.715-4.431-6.418z" fill="#ADFF2F"/></svg>