<svg width="248" height="51" fill="none" xmlns="http://www.w3.org/2000/svg"><path d="M31.026 42.877V49H.17V11.16h29.756v6.124H8.092v9.507h20.195v6.123H8.092v9.963h22.934zM24.071 1.412l-9.131 6.5h-4.566v-.833L17.142.257h6.929v1.155zm39.45 18.53L52.806 49h-9.023L33.39 19.942h7.976L46.44 36.19c.144.448.367 1.235.672 2.363.322 1.11.734 2.56 1.235 4.35l.43-1.503c.233-.752.483-1.576.752-2.47.268-.896.501-1.648.698-2.257l5.398-16.73h7.896zm31.717 14.502c0 4.709-1.307 8.406-3.921 11.092-2.614 2.667-6.23 4.001-10.85 4.001-4.53 0-8.083-1.343-10.661-4.028-2.578-2.686-3.867-6.374-3.867-11.065 0-4.673 1.289-8.343 3.867-11.01 2.578-2.686 6.185-4.029 10.822-4.029 4.745 0 8.361 1.298 10.85 3.894 2.507 2.578 3.76 6.293 3.76 11.145zm-7.896 0c0-3.455-.564-5.962-1.692-7.52-1.128-1.557-2.766-2.336-4.914-2.336-2.292 0-4.01.824-5.156 2.471-1.146 1.63-1.72 4.091-1.72 7.385 0 3.24.556 5.712 1.666 7.412 1.128 1.683 2.748 2.525 4.86 2.525 2.328 0 4.065-.824 5.21-2.47 1.164-1.666 1.746-4.154 1.746-7.467zM108.8 9.146V49h-7.547V9.146h7.547zm16.076 41.449c-1.724 0-3.117-.66-4.18-1.98-.477-.587-.825-1.283-1.045-2.09-.184-.807-.275-1.705-.275-2.695 0-2.53.751-5.537 2.255-9.02-4.767-.33-7.15-2.952-7.15-7.865 0-2.823.788-5.83 2.365-9.02a28.688 28.688 0 011.925-3.3 17.494 17.494 0 012.255-2.805c2.053-2.163 4.198-3.245 6.435-3.245 4.106 0 6.16 2.402 6.16 7.205 0 2.567-.825 5.427-2.475 8.58a84.093 84.093 0 01-2.585 4.675 478.277 478.277 0 00-2.75 4.565c1.576-.293 3.3-.807 5.17-1.54.11-.037.22-.055.33-.055.293 0 .44.128.44.385s-.184.458-.55.605c-1.1.403-2.145.752-3.135 1.045-.99.293-1.925.513-2.805.66-1.907 3.63-2.86 6.802-2.86 9.515 0 1.503.256 2.732.77 3.685.623 1.1 1.54 1.65 2.75 1.65 2.053 0 4.4-1.448 7.04-4.345 1.76-1.907 3.428-4.107 5.005-6.6 1.576-2.493 3.098-5.298 4.565-8.415l.495-.99c.146-.33.293-.623.44-.88a285.394 285.394 0 003.3-6.93 48.563 48.563 0 013.575-6.38c3.923-5.83 7.59-8.745 11-8.745 1.063 0 1.998.275 2.805.825.88.587 1.32 1.54 1.32 2.86 0 .917-.239 1.668-.715 2.255-.624.733-1.43 1.1-2.42 1.1-.807 0-1.43-.257-1.87-.77a2.326 2.326 0 01-.715-1.705c0-1.76.861-2.64 2.585-2.64.843 0 1.521.367 2.035 1.1-.037-.733-.367-1.283-.99-1.65a3.792 3.792 0 00-2.145-.66c-2.75 0-5.592 2.677-8.525 8.03-1.174 2.163-2.292 4.602-3.355 7.315-1.027 2.677-2.017 5.628-2.97 8.855-.807 2.897-1.43 5.427-1.87 7.59-.44 2.127-.66 3.868-.66 5.225 0 3.117.715 4.675 2.145 4.675 1.026 0 2.255-.917 3.685-2.75 1.393-1.76 3.043-4.62 4.95-8.58.146-.367.33-.587.55-.66h.055c.146 0 .22.128.22.385 0 .293-.074.587-.22.88-2.017 4.107-3.264 6.508-3.74 7.205-2.017 3.153-4.034 4.73-6.05 4.73-1.284 0-2.402-.477-3.355-1.43-1.357-1.32-2.035-3.41-2.035-6.27 0-1.723.275-3.703.825-5.94-2.42 4.217-4.859 7.535-7.315 9.955-3.044 2.933-5.94 4.4-8.69 4.4zm-2.75-16.775a256.096 256.096 0 012.255-4.51c.77-1.54 1.54-3.062 2.31-4.565 1.833-3.63 3.025-6.6 3.575-8.91.22-.953.33-1.815.33-2.585 0-2.383-.954-3.575-2.86-3.575-1.32 0-2.824.807-4.51 2.42-.88.88-1.705 1.888-2.475 3.025a23.795 23.795 0 00-2.09 3.85c-1.284 3.007-1.925 5.72-1.925 8.14 0 4.07 1.796 6.307 5.39 6.71zm45.541-13.34v6.015h-5.156V37.99c0 2.328.045 3.688.134 4.082.107.376.331.69.671.94.358.25.788.376 1.289.376.699 0 1.71-.242 3.035-.725l.645 5.855c-1.755.752-3.742 1.127-5.962 1.127-1.361 0-2.587-.223-3.679-.67-1.093-.466-1.898-1.057-2.417-1.773-.502-.734-.851-1.72-1.048-2.954-.161-.878-.241-2.65-.241-5.318V26.495h-3.465V20.48h3.465v-5.667l7.573-4.404v10.07h5.156zm5.237-3.868V9.63h7.546v6.982h-7.546zm0 32.388V20.48h7.546V49h-7.546zm13.562-14.663c0-2.507.617-4.933 1.853-7.278 1.235-2.345 2.981-4.136 5.237-5.371 2.273-1.235 4.807-1.853 7.6-1.853 4.315 0 7.851 1.405 10.608 4.216 2.757 2.793 4.135 6.33 4.135 10.608 0 4.315-1.396 7.896-4.189 10.742-2.775 2.83-6.275 4.243-10.501 4.243-2.613 0-5.111-.59-7.492-1.772-2.363-1.182-4.163-2.91-5.398-5.183-1.236-2.292-1.853-5.076-1.853-8.352zm7.734.403c0 2.828.672 4.995 2.014 6.499 1.343 1.504 2.999 2.256 4.969 2.256 1.969 0 3.616-.752 4.941-2.256 1.343-1.504 2.014-3.688 2.014-6.553 0-2.793-.671-4.941-2.014-6.445-1.325-1.504-2.972-2.256-4.941-2.256-1.97 0-3.626.752-4.969 2.256-1.342 1.504-2.014 3.67-2.014 6.499zM247.777 49h-7.547V34.444c0-3.08-.161-5.066-.483-5.962-.322-.913-.85-1.62-1.584-2.121-.717-.502-1.585-.752-2.605-.752-1.307 0-2.48.358-3.518 1.074a5.481 5.481 0 00-2.149 2.847c-.376 1.181-.564 3.366-.564 6.553V49h-7.546V20.48h7.009v4.189c2.489-3.223 5.622-4.834 9.399-4.834 1.665 0 3.187.304 4.566.913 1.378.59 2.417 1.352 3.115 2.283a8.055 8.055 0 011.477 3.169c.287 1.181.43 2.873.43 5.075V49z" fill="#ADFF2F"/></svg>