<svg width="21" height="21" fill="none" xmlns="http://www.w3.org/2000/svg"><g clip-path="url(#a)"><path d="M20.941 10.479C20.941 4.77 16.372.147 10.733.147S.525 4.771.525 10.479c0 5.157 3.733 9.431 8.613 10.207v-7.22H6.545v-2.987h2.593V8.203c0-2.59 1.523-4.02 3.856-4.02 1.117 0 2.285.202 2.285.202v2.541H13.99c-1.267 0-1.663.797-1.663 1.614v1.939h2.831l-.453 2.987h-2.378v7.22c4.88-.776 8.613-5.05 8.613-10.207z" fill="#2C3E50"/></g><defs><clipPath id="a"><path fill="#fff" transform="translate(.525 .147)" d="M0 0H20.416V20.664H0z"/></clipPath></defs></svg>