<svg width="326" height="58" fill="none" xmlns="http://www.w3.org/2000/svg"><path d="M8.682 26.116V40H.76V2.16h27.903v6.124H8.683v11.709h19.362v6.123H8.682zM42.09.146v5.56h-7.546V.146h7.546zm0 10.796V40h-7.546V10.942h7.546zM57.398.146V40h-7.546V.146h7.546zm15.308 24.278V40h-7.547V17.441c0-1.557-.027-2.828-.08-3.813a83.938 83.938 0 00-.135-2.686h7.198c.035.215.08.726.134 1.531.054.788.098 1.602.134 2.444.054.824.08 1.423.08 1.8h.108c.931-2.22 2.086-3.832 3.465-4.835 1.396-1.002 3.061-1.504 4.995-1.504 2.22 0 4.001.529 5.344 1.585 1.36 1.056 2.274 2.64 2.74 4.753h.16c.985-2.256 2.167-3.876 3.545-4.86 1.379-.985 3.133-1.478 5.264-1.478 2.829 0 4.986.967 6.472 2.9 1.486 1.916 2.229 4.674 2.229 8.272V40h-7.493V23.699c0-2.56-.367-4.476-1.1-5.747-.735-1.272-1.836-1.907-3.304-1.907-1.468 0-2.695.716-3.68 2.148-.984 1.415-1.476 3.375-1.476 5.882V40h-7.493V23.699c0-2.56-.367-4.476-1.101-5.747-.734-1.272-1.835-1.907-3.303-1.907-1.522 0-2.766.779-3.733 2.336-.949 1.558-1.423 3.572-1.423 6.043zm68.991 1.02c0 4.709-1.307 8.406-3.921 11.092-2.614 2.667-6.23 4.001-10.849 4.001-4.53 0-8.084-1.343-10.662-4.028-2.578-2.686-3.867-6.374-3.867-11.065 0-4.672 1.289-8.343 3.867-11.01 2.578-2.686 6.186-4.029 10.823-4.029 4.744 0 8.361 1.298 10.85 3.894 2.506 2.578 3.759 6.293 3.759 11.145zm-7.895 0c0-3.455-.564-5.962-1.692-7.52-1.128-1.557-2.766-2.336-4.915-2.336-2.291 0-4.01.824-5.156 2.471-1.146 1.63-1.719 4.091-1.719 7.385 0 3.24.555 5.712 1.665 7.412 1.128 1.683 2.749 2.525 4.861 2.525 2.328 0 4.064-.824 5.21-2.47 1.164-1.666 1.746-4.155 1.746-7.467zm18.871 32.376c-1.504 0-2.787-.348-3.85-1.045-1.284-.77-1.925-1.907-1.925-3.41 0-2.677 1.1-4.015 3.3-4.015.696 0 1.301.257 1.815.77.403.44.605.99.605 1.65 0 .88-.33 1.595-.99 2.145-.587.55-1.247.825-1.98.825-.734 0-1.357-.275-1.87-.825.183 1.21 1.228 1.815 3.135 1.815 3.85 0 7.645-2.713 11.385-8.14 3.483-5.06 6.618-10.835 9.405-17.325-4.584 6.673-9.167 10.01-13.75 10.01-3.704 0-6.472-1.027-8.305-3.08-1.614-1.833-2.42-4.308-2.42-7.425 0-4.327 1.356-8.617 4.07-12.87-1.907-.843-3.502-1.943-4.785-3.3-1.32-1.503-1.98-3.062-1.98-4.675 0-2.31 1.063-4.088 3.19-5.335 1.576-.953 3.465-1.43 5.665-1.43 3.776 0 7.058 1.228 9.845 3.685 5.353-3.08 10.523-4.62 15.51-4.62 4.51 0 6.765 1.173 6.765 3.52 0 2.383-1.962 4.987-5.885 7.81-5.427 3.85-12.119 5.775-20.075 5.775a29.05 29.05 0 01-1.815-.055 24.458 24.458 0 01-1.705-.165c-3.117 4.877-4.675 9.277-4.675 13.2 0 2.383.623 4.198 1.87 5.445 1.283 1.283 2.86 1.925 4.73 1.925 2.786 0 5.573-1.283 8.36-3.85 1.723-1.613 3.758-4.07 6.105-7.37l.22-.385c.11-1.503.183-2.292.22-2.365a9.334 9.334 0 01.33-1.595c.146-.513.33-1.008.55-1.485.733-1.393 1.613-2.09 2.64-2.09 1.026 0 1.54.605 1.54 1.815 0 1.32-.734 2.878-2.2 4.675a6.782 6.782 0 01-.715.825 31.72 31.72 0 01-1.045.99c-.184.073-.459.66-.825 1.76a361.846 361.846 0 00-2.035 6.765 144.775 144.775 0 01-2.035 6.765c-.844 2.53-1.962 4.73-3.355 6.6-1.357 1.87-2.915 3.465-4.675 4.785-2.897 2.2-5.684 3.3-8.36 3.3zm7.04-40.7c1.723 0 3.465-.165 5.225-.495a35.063 35.063 0 007.15-2.2 33.771 33.771 0 006.765-3.85c.55-.403 1.063-.843 1.54-1.32a15.64 15.64 0 001.485-1.595c1.026-1.283 1.54-2.402 1.54-3.355 0-1.357-1.137-2.035-3.41-2.035-4.987 0-9.919 1.888-14.795 5.665.806.953 1.448 1.98 1.925 3.08.11.22.018.367-.275.44h-.165c-.257 0-.44-.092-.55-.275-.404-.623-1.027-1.467-1.87-2.53-2.787 2.347-5.262 5.097-7.425 8.25.513.073.99.128 1.43.165.476.037.953.055 1.43.055zm-7.535-1.54c2.53-3.483 5.811-6.49 9.845-9.02-2.824-2.163-5.757-3.245-8.8-3.245-1.614 0-3.007.385-4.18 1.155-1.467.953-2.2 2.383-2.2 4.29 0 3.007 1.778 5.28 5.335 6.82zM188.184 40h-7.546V11.48h7.009v4.055c1.2-1.916 2.274-3.178 3.223-3.787.966-.609 2.059-.913 3.276-.913 1.719 0 3.375.474 4.968 1.423l-2.336 6.58c-1.271-.824-2.453-1.236-3.545-1.236-1.056 0-1.952.296-2.686.887-.734.573-1.316 1.62-1.745 3.142-.412 1.522-.618 4.709-.618 9.56V40zm19.846-19.82l-6.848-1.235c.77-2.757 2.095-4.798 3.975-6.123 1.88-1.325 4.673-1.987 8.379-1.987 3.366 0 5.872.403 7.519 1.208 1.647.788 2.802 1.8 3.465 3.035.68 1.218 1.02 3.465 1.02 6.74l-.081 8.81c0 2.506.117 4.359.35 5.559.25 1.181.707 2.452 1.369 3.813h-7.466c-.197-.501-.438-1.244-.725-2.229a13.936 13.936 0 00-.268-.886c-1.289 1.253-2.668 2.193-4.136 2.82-1.468.626-3.035.94-4.7.94-2.936 0-5.254-.797-6.955-2.39-1.683-1.594-2.525-3.608-2.525-6.043 0-1.611.385-3.044 1.155-4.297.77-1.271 1.844-2.238 3.223-2.9 1.396-.68 3.401-1.271 6.015-1.773 3.527-.662 5.971-1.28 7.332-1.853v-.752c0-1.45-.358-2.48-1.074-3.088-.716-.627-2.068-.94-4.055-.94-1.343 0-2.391.268-3.143.806-.752.519-1.36 1.44-1.826 2.766zm10.098 6.124c-.967.322-2.498.707-4.592 1.155-2.095.447-3.465.886-4.109 1.315-.985.699-1.477 1.585-1.477 2.66 0 1.055.394 1.969 1.181 2.738.788.77 1.791 1.155 3.008 1.155 1.361 0 2.659-.447 3.894-1.343.913-.68 1.513-1.513 1.8-2.497.196-.645.295-1.871.295-3.68v-1.503zm14.663-14.824h7.036v4.189c.913-1.432 2.149-2.596 3.706-3.491 1.558-.895 3.286-1.343 5.183-1.343 3.312 0 6.123 1.298 8.433 3.894 2.309 2.596 3.464 6.213 3.464 10.85 0 4.762-1.163 8.468-3.491 11.118-2.327 2.632-5.147 3.947-8.459 3.947-1.576 0-3.008-.313-4.297-.94-1.271-.626-2.614-1.7-4.029-3.222V50.85h-7.546V11.48zm7.466 13.776c0 3.205.635 5.577 1.907 7.117 1.271 1.522 2.819 2.283 4.646 2.283 1.754 0 3.213-.698 4.377-2.095 1.164-1.414 1.746-3.724 1.746-6.929 0-2.99-.6-5.21-1.8-6.66-1.199-1.45-2.685-2.175-4.458-2.175-1.844 0-3.375.716-4.592 2.148-1.217 1.415-1.826 3.518-1.826 6.311zM274.148.63v14.475c2.435-2.847 5.345-4.27 8.728-4.27 1.737 0 3.304.322 4.7.967 1.397.644 2.444 1.468 3.142 2.47a8.667 8.667 0 011.45 3.33c.269 1.218.403 3.107.403 5.667V40h-7.546V24.934c0-2.99-.143-4.888-.43-5.693a3.645 3.645 0 00-1.531-1.907c-.716-.483-1.62-.725-2.712-.725-1.253 0-2.372.304-3.357.913-.985.609-1.71 1.53-2.175 2.766-.448 1.218-.672 3.026-.672 5.425V40h-7.546V.63h7.546zm22.532 10.85h8.03l6.821 20.248 6.66-20.248h7.815l-10.07 27.446-1.8 4.968c-.662 1.665-1.298 2.936-1.907 3.814-.59.877-1.28 1.584-2.067 2.121-.77.555-1.728.985-2.874 1.29-1.128.303-2.408.456-3.84.456-1.45 0-2.874-.153-4.27-.457l-.672-5.908c1.182.233 2.247.35 3.196.35 1.755 0 3.053-.52 3.894-1.559.842-1.02 1.486-2.327 1.934-3.92l-10.85-28.602z" fill="#ADFF2F"/></svg>