<svg width="244" height="53" fill="none" xmlns="http://www.w3.org/2000/svg"><path d="M19.645 35.334a20.38 20.38 0 005.99-.887c1.933-.608 3.428-1.378 4.484-2.31v-5.236h-9.238v-5.855h16.49v13.912c-2.006 2.058-4.62 3.67-7.843 4.834-3.204 1.163-6.57 1.745-10.097 1.745-4.1 0-7.583-.76-10.447-2.283-2.847-1.54-5.013-3.768-6.5-6.687C1 29.631.257 26.077.257 21.906c0-6.23 1.665-11.002 4.995-14.314 3.33-3.33 8.12-4.995 14.368-4.995 4.44 0 8.074.823 10.903 2.47 2.829 1.63 4.843 4.091 6.043 7.386l-7.305 2.202c-.788-1.916-2.023-3.366-3.706-4.35-1.683-.986-3.662-1.478-5.935-1.478-3.724 0-6.553 1.128-8.487 3.384-1.933 2.256-2.9 5.487-2.9 9.695 0 4.279.994 7.59 2.98 9.936 2.006 2.328 4.817 3.492 8.433 3.492zm32.55-34.188V41h-7.547V1.146h7.546zm35.368 25.298c0 4.709-1.307 8.406-3.92 11.092-2.615 2.667-6.231 4.001-10.85 4.001-4.53 0-8.084-1.343-10.662-4.028-2.578-2.686-3.867-6.374-3.867-11.065 0-4.672 1.289-8.343 3.867-11.01 2.578-2.686 6.186-4.029 10.823-4.029 4.744 0 8.36 1.298 10.85 3.894 2.506 2.578 3.759 6.293 3.759 11.145zm-7.895 0c0-3.455-.565-5.962-1.692-7.52-1.128-1.557-2.766-2.336-4.915-2.336-2.292 0-4.01.824-5.156 2.471-1.146 1.63-1.719 4.091-1.719 7.385 0 3.24.555 5.712 1.665 7.412 1.128 1.683 2.748 2.525 4.86 2.525 2.328 0 4.065-.824 5.21-2.47 1.165-1.666 1.746-4.155 1.746-7.467zm38.403 6.07c0 2.81-1.155 5.022-3.465 6.633-2.291 1.593-5.469 2.39-9.533 2.39-3.993 0-7.054-.627-9.185-1.88-2.112-1.27-3.518-3.24-4.216-5.908l6.633-.994c.376 1.379 1.02 2.355 1.934 2.928.931.572 2.542.859 4.834.859 2.112 0 3.652-.269 4.619-.806.967-.537 1.45-1.378 1.45-2.524 0-.931-.394-1.665-1.182-2.202-.769-.555-2.085-1.02-3.947-1.397a116.124 116.124 0 01-3.814-.832 47.132 47.132 0 01-2.873-.779 20.188 20.188 0 01-1.934-.752c-1.486-.734-2.623-1.674-3.41-2.82-.77-1.146-1.155-2.56-1.155-4.243 0-2.775 1.065-4.932 3.195-6.472 2.149-1.558 5.184-2.337 9.104-2.337 3.456 0 6.231.672 8.326 2.015 2.112 1.342 3.428 3.285 3.947 5.827l-6.687.699c-.214-1.182-.743-2.06-1.584-2.632-.842-.591-2.175-.887-4.002-.887-1.79 0-3.133.233-4.028.699-.895.447-1.343 1.208-1.343 2.282 0 .842.341 1.513 1.021 2.014.698.484 1.862.887 3.491 1.209 2.274.466 4.288.949 6.043 1.45 1.772.484 3.195 1.066 4.27 1.746a7.721 7.721 0 012.524 2.632c.645 1.056.967 2.417.967 4.082zm16.913 13.546c-4.18 0-7.48-.733-9.9-2.2-2.384-1.503-3.575-3.465-3.575-5.885 0-2.677 1.32-5.188 3.96-7.535 2.823-2.493 6.526-4.18 11.11-5.06.623-.11 1.283-.202 1.98-.275.696-.073 1.393-.11 2.09-.11 4.253 0 7.131 1.027 8.635 3.08.146.183.22.422.22.715 0 .587-.165.678-.495.275-1.32-1.87-4.199-2.805-8.635-2.805-1.394 0-2.64.11-3.74.33-3.85.733-6.912 2.182-9.185 4.345-2.164 2.053-3.245 4.235-3.245 6.545 0 2.2.99 3.96 2.97 5.28 1.943 1.32 4.583 1.98 7.92 1.98 3.153 0 6.068-.385 8.745-1.155 2.676-.733 5.133-1.778 7.37-3.135 3.666-2.237 5.5-5.207 5.5-8.91 0-4.253-2.659-8.085-7.975-11.495a86.066 86.066 0 01-3.41-2.31c-.917-.697-1.632-1.283-2.145-1.76-1.944-1.87-2.915-3.85-2.915-5.94 0-.55.055-1.063.165-1.54.513-2.383 2.108-4.308 4.785-5.775 2.456-1.357 5.115-2.035 7.975-2.035 3.263 0 5.738.568 7.425 1.705 1.21.807 1.815 2.035 1.815 3.685 0 1.063-.312 2.053-.935 2.97-.587.88-1.357 1.32-2.31 1.32-.697 0-1.32-.275-1.87-.825a2.326 2.326 0 01-.715-1.705c0-1.76.861-2.64 2.585-2.64 1.026 0 1.65.33 1.87.99.183-.99-.202-1.852-1.155-2.585-1.504-1.173-3.465-1.76-5.885-1.76-2.53 0-4.84.715-6.93 2.145-2.237 1.503-3.355 3.245-3.355 5.225 0 2.567 2.346 5.207 7.04 7.92 6.563 3.74 9.845 8.067 9.845 12.98 0 2.163-.697 4.253-2.09 6.27-1.394 2.053-3.245 3.74-5.555 5.06-5.28 3.08-11.275 4.62-17.985 4.62zm35.938-24.88l-6.848-1.235c.77-2.757 2.095-4.798 3.975-6.123 1.88-1.325 4.673-1.987 8.379-1.987 3.366 0 5.872.403 7.519 1.208 1.647.788 2.802 1.8 3.465 3.035.68 1.218 1.02 3.465 1.02 6.74l-.08 8.81c0 2.506.116 4.359.349 5.559.25 1.181.707 2.452 1.369 3.813h-7.466c-.196-.501-.438-1.244-.725-2.229a13.276 13.276 0 00-.268-.886c-1.289 1.253-2.668 2.193-4.136 2.82-1.468.626-3.035.94-4.7.94-2.936 0-5.254-.797-6.955-2.39-1.683-1.594-2.525-3.608-2.525-6.043 0-1.611.385-3.044 1.155-4.297.77-1.271 1.844-2.238 3.223-2.9 1.396-.68 3.402-1.271 6.015-1.773 3.527-.662 5.971-1.28 7.332-1.853v-.752c0-1.45-.358-2.48-1.074-3.088-.716-.627-2.068-.94-4.055-.94-1.343 0-2.391.268-3.142.806-.752.519-1.361 1.44-1.827 2.766zm10.098 6.124c-.967.322-2.498.707-4.592 1.155-2.095.447-3.465.886-4.109 1.315-.985.699-1.477 1.585-1.477 2.66 0 1.055.394 1.969 1.181 2.738.788.77 1.791 1.155 3.008 1.155 1.361 0 2.659-.447 3.894-1.343.913-.68 1.513-1.513 1.8-2.497.197-.645.295-1.871.295-3.68v-1.503zM203.122 41h-7.546V12.48h7.009v4.055c1.2-1.916 2.274-3.178 3.223-3.787.966-.609 2.059-.913 3.276-.913 1.719 0 3.375.474 4.968 1.423l-2.336 6.58c-1.271-.824-2.453-1.236-3.545-1.236-1.056 0-1.952.296-2.686.887-.734.573-1.316 1.62-1.745 3.142-.412 1.522-.618 4.709-.618 9.56V41zm10.635-28.52h8.03l6.821 20.248 6.66-20.248h7.815l-10.071 27.446-1.799 4.968c-.663 1.665-1.298 2.936-1.907 3.814-.591.877-1.28 1.584-2.068 2.121-.77.555-1.727.985-2.873 1.29-1.128.303-2.408.456-3.841.456-1.45 0-2.873-.153-4.27-.457l-.671-5.908c1.182.233 2.247.35 3.196.35 1.754 0 3.052-.52 3.894-1.559.841-1.02 1.486-2.327 1.933-3.92l-10.849-28.602z" fill="#ADFF2F"/></svg>