<svg width="21" height="21" fill="none" xmlns="http://www.w3.org/2000/svg"><g clip-path="url(#a)"><path d="M10.386 5.18c-2.897 0-5.233 2.366-5.233 5.299 0 2.932 2.336 5.298 5.233 5.298s5.233-2.366 5.233-5.298c0-2.933-2.336-5.298-5.233-5.298zm0 8.743c-1.872 0-3.402-1.544-3.402-3.444s1.525-3.444 3.402-3.444c1.876 0 3.402 1.544 3.402 3.444s-1.53 3.444-3.402 3.444zm6.668-8.959c0 .687-.547 1.236-1.221 1.236-.679 0-1.22-.553-1.22-1.236 0-.682.546-1.236 1.22-1.236.674 0 1.22.554 1.22 1.236zm3.466 1.254c-.078-1.655-.451-3.121-1.65-4.33C17.679.682 16.23.304 14.595.22 12.91.123 7.858.123 6.173.22c-1.63.078-3.079.456-4.277 1.664S.33 4.558.248 6.214c-.096 1.706-.096 6.82 0 8.525.077 1.656.45 3.122 1.648 4.33 1.198 1.208 2.642 1.586 4.277 1.67 1.685.096 6.736.096 8.421 0 1.635-.08 3.084-.457 4.277-1.67 1.193-1.208 1.567-2.674 1.649-4.33.095-1.706.095-6.815 0-8.52zM18.343 16.57a3.466 3.466 0 01-1.94 1.964c-1.344.54-4.532.415-6.017.415-1.485 0-4.678.12-6.017-.415a3.466 3.466 0 01-1.94-1.964c-.533-1.36-.41-4.588-.41-6.091 0-1.503-.118-4.736.41-6.091a3.466 3.466 0 011.94-1.964c1.344-.54 4.532-.415 6.017-.415 1.485 0 4.677-.12 6.016.415a3.466 3.466 0 011.94 1.964c.533 1.36.41 4.588.41 6.09 0 1.504.123 4.736-.41 6.092z" fill="#2C3E50"/></g><defs><clipPath id="a"><path fill="#fff" transform="translate(.176 .147)" d="M0 0H20.416V20.664H0z"/></clipPath></defs></svg>