<svg width="34" height="17" fill="none" xmlns="http://www.w3.org/2000/svg"><path d="M4.115 10.941V17H.658V.488h12.175V3.16H4.115v5.11h8.449v2.671h-8.45zm17.552-.21V17h-3.458V.488h8.25c1.97 0 3.489.426 4.56 1.278 1.07.843 1.605 2.058 1.605 3.644 0 1.156-.329 2.156-.985 3-.656.836-1.543 1.387-2.66 1.652L33.444 17h-3.89l-3.833-6.27h-4.054zm7.476-5.18c0-.79-.254-1.383-.762-1.781-.507-.399-1.27-.598-2.285-.598h-4.43v4.875h4.524c.969 0 1.703-.219 2.203-.656.5-.438.75-1.051.75-1.84z" fill="#fff"/></svg>