<svg width="152" height="26" fill="none" xmlns="http://www.w3.org/2000/svg"><path d="M4.342 11.204V25h-4.35V1.608h5.595L15.93 19.77c-.2-1.682-.3-3.204-.3-4.565V1.608h4.35V25h-5.744L4.043 6.987c.1.875.172 1.666.216 2.374.055.698.083 1.312.083 1.843zm24.172 5.711c0 1.749.32 3.071.963 3.968.653.885 1.577 1.328 2.772 1.328.819 0 1.489-.177 2.009-.531.531-.366.902-.902 1.112-1.61l4.4.381c-1.273 3.254-3.858 4.881-7.753 4.881-2.7 0-4.776-.797-6.226-2.39-1.45-1.605-2.175-3.94-2.175-7.007 0-2.966.736-5.245 2.208-6.84 1.472-1.593 3.558-2.39 6.259-2.39 2.579 0 4.549.858 5.91 2.573 1.361 1.705 2.042 4.206 2.042 7.504v.133H28.514zm7.006-2.922c-.089-1.45-.438-2.534-1.046-3.254-.61-.73-1.428-1.095-2.457-1.095-1.096 0-1.943.381-2.54 1.145-.587.764-.897 1.832-.93 3.204h6.973zm15.107 4.5L46.41 25h-4.964l6.575-9.28-6.26-8.683h5.031l3.835 5.877 3.818-5.877h5.064L53.25 15.67 59.874 25H54.81l-4.183-6.508zm20.42 6.241c-1.129.377-2.44.565-3.935.565-1.372 0-2.43-.37-3.17-1.113-.742-.752-1.113-1.887-1.113-3.403V10.191h-2.274V7.037h2.507l1.46-4.217h2.922v4.217h3.404v3.154h-3.404v9.33c0 .875.166 1.522.498 1.943.332.41.847.614 1.544.614.332 0 .852-.077 1.56-.232v2.888zm7.385 1.252c-1.065 0-1.904-.408-2.516-1.224-.544-.748-.816-1.745-.816-2.992 0-1.541.521-3.389 1.564-5.542-3.264-.204-4.896-1.825-4.896-4.862 0-1.723.544-3.581 1.632-5.576.385-.725.816-1.405 1.292-2.04.476-.657.997-1.235 1.564-1.734C77.684.679 79.146.01 80.642.01c2.788 0 4.182 1.485 4.182 4.454 0 .793-.136 1.632-.408 2.516-.25.884-.669 1.813-1.258 2.788a55.475 55.475 0 01-1.802 2.89c-.635.93-1.247 1.87-1.836 2.822 1.065-.181 2.244-.499 3.536-.952a.752.752 0 01.238-.034c.181 0 .272.08.272.238 0 .136-.125.26-.374.374-.748.25-1.462.465-2.142.646a17.51 17.51 0 01-1.938.408c-1.292 2.244-1.938 4.227-1.938 5.95 0 .839.136 1.53.408 2.074.385.657.918.986 1.598.986 1.247 0 2.697-.93 4.352-2.788.703-.77 1.825-2.493 3.366-5.168.317-1.836.737-3.366 1.258-4.59.544-1.27 1.258-1.904 2.142-1.904.59 0 .884.351.884 1.054 0 .363-.125.85-.374 1.462a9.42 9.42 0 01-.646 1.258c-.227.408-.465.805-.714 1.19l-1.224 1.7a12.409 12.409 0 00-.816 4.386c0 .476.034.907.102 1.292.272 1.45.952 2.176 2.04 2.176 2.788 0 5.814-3.128 9.078-9.384 1.133-2.13 1.7-4.42 1.7-6.868 0-2.267-.646-3.876-1.938-4.828-.567-.43-1.371-.646-2.414-.646-1.11 0-1.927.306-2.448.918-.181.181-.34.272-.476.272-.136 0-.204-.057-.204-.17 0-.113.045-.215.136-.306.748-.907 1.995-1.36 3.74-1.36 1.02 0 1.881.17 2.584.51 2.131 1.043 3.196 3.003 3.196 5.882 0 2.13-.578 4.307-1.734 6.528a33.054 33.054 0 01-2.108 3.536 22.225 22.225 0 01-2.38 2.924c-2.29 2.425-4.533 3.638-6.732 3.638-1.745 0-2.845-.748-3.298-2.244-.159-.499-.238-1.077-.238-1.734 0-.59.068-1.201.204-1.836a29.86 29.86 0 01-1.292 1.768c-.408.521-.827.997-1.258 1.428-1.813 1.813-3.559 2.72-5.236 2.72zm-1.462-10.37l1.564-2.788c.544-.93 1.077-1.87 1.598-2.822 1.247-2.244 2.051-4.08 2.414-5.508.136-.59.204-1.122.204-1.598 0-1.473-.646-2.21-1.938-2.21-.93 0-1.96.499-3.094 1.496-1.224 1.088-2.255 2.505-3.094 4.25-.884 1.836-1.326 3.513-1.326 5.032 0 2.516 1.224 3.899 3.672 4.148zm35.863 3.773l4.648.78c-.597 1.704-1.543 3.005-2.838 3.901-1.284.886-2.895 1.328-4.831 1.328-3.066 0-5.335-1.001-6.807-3.004-1.162-1.605-1.743-3.63-1.743-6.077 0-2.921.763-5.207 2.291-6.856 1.527-1.66 3.458-2.49 5.794-2.49 2.623 0 4.692.869 6.209 2.606 1.516 1.727 2.241 4.377 2.174 7.952h-11.687c.033 1.384.409 2.463 1.129 3.238.719.763 1.616 1.145 2.689 1.145.731 0 1.345-.2 1.843-.598.498-.398.874-1.04 1.129-1.925zm.266-4.715c-.034-1.35-.382-2.374-1.046-3.072-.664-.708-1.472-1.062-2.424-1.062-1.018 0-1.859.37-2.524 1.112-.664.742-.99 1.749-.979 3.022h6.973zm11.936-1.926l-4.233-.764c.476-1.704 1.295-2.966 2.457-3.785s2.888-1.228 5.179-1.228c2.081 0 3.631.249 4.649.747 1.018.487 1.732 1.112 2.142 1.876.42.752.63 2.141.63 4.167l-.049 5.445c0 1.55.072 2.695.215 3.437.155.73.438 1.516.847 2.357h-4.615c-.122-.31-.271-.77-.448-1.378a8.914 8.914 0 00-.166-.548c-.797.775-1.65 1.356-2.557 1.743a7.323 7.323 0 01-2.905.581c-1.815 0-3.249-.492-4.3-1.477-1.041-.985-1.561-2.23-1.561-3.735 0-.997.238-1.882.714-2.657a4.606 4.606 0 011.992-1.793c.864-.42 2.103-.786 3.719-1.095 2.18-.41 3.691-.792 4.532-1.146v-.465c0-.896-.221-1.533-.664-1.909-.442-.387-1.278-.581-2.507-.581-.83 0-1.477.166-1.942.498-.465.321-.841.891-1.129 1.71zm6.242 3.785c-.597.2-1.544.437-2.839.714-1.294.277-2.141.548-2.54.814-.608.431-.913.979-.913 1.643 0 .653.244 1.218.731 1.694.487.475 1.107.713 1.859.713.841 0 1.644-.276 2.407-.83.565-.42.936-.935 1.113-1.544.121-.398.182-1.156.182-2.274v-.93zM144.94 25h-4.665V7.37h4.333v2.506c.742-1.184 1.406-1.965 1.993-2.34.597-.377 1.272-.565 2.025-.565 1.062 0 2.086.293 3.071.88l-1.444 4.067c-.786-.51-1.516-.764-2.191-.764-.653 0-1.207.183-1.661.548-.453.354-.813 1.002-1.079 1.943-.254.94-.382 2.91-.382 5.91V25z" fill="#ADFF2F"/></svg>