<svg width="297" height="107" fill="none" xmlns="http://www.w3.org/2000/svg"><path d="M16.438 29.031V55H8.25V10.969h10.531L38.25 45.156c-.375-3.166-.563-6.031-.563-8.593V10.968h8.188V55H35.062L15.875 21.094c.188 1.646.323 3.135.406 4.468.104 1.313.157 2.47.157 3.47zm45.5 10.75c0 3.292.604 5.782 1.812 7.469 1.23 1.667 2.969 2.5 5.219 2.5 1.541 0 2.802-.333 3.781-1 1-.688 1.698-1.698 2.094-3.031l8.281.718c-2.396 6.126-7.26 9.188-14.594 9.188-5.083 0-8.99-1.5-11.719-4.5-2.729-3.02-4.093-7.417-4.093-13.188 0-5.583 1.385-9.874 4.156-12.874 2.77-3 6.698-4.5 11.781-4.5 4.854 0 8.563 1.614 11.125 4.843 2.563 3.209 3.844 7.917 3.844 14.125v.25H61.937zm13.187-5.5c-.167-2.729-.823-4.77-1.969-6.125-1.146-1.375-2.687-2.062-4.625-2.062-2.062 0-3.656.718-4.781 2.156-1.104 1.438-1.688 3.448-1.75 6.031h13.125zm28.437 8.469L95.625 55h-9.344l12.375-17.469-11.781-16.343h9.469l7.218 11.062 7.188-11.063h9.531L108.5 37.438 120.969 55h-9.531l-7.876-12.25zM142 54.5c-2.125.708-4.594 1.063-7.406 1.063-2.584 0-4.573-.698-5.969-2.094-1.396-1.417-2.094-3.552-2.094-6.407V27.125h-4.281v-5.938h4.719l2.75-7.937h5.5v7.938h6.406v5.937h-6.406v17.563c0 1.645.312 2.864.937 3.656.625.77 1.594 1.156 2.906 1.156.626 0 1.605-.146 2.938-.438V54.5zm13.901 2.356c-2.005 0-3.584-.768-4.736-2.304-1.024-1.408-1.536-3.285-1.536-5.632 0-2.901.982-6.379 2.944-10.432-6.144-.384-9.216-3.435-9.216-9.152 0-3.243 1.024-6.741 3.072-10.496a29.36 29.36 0 012.432-3.84 19.796 19.796 0 012.944-3.264c2.688-2.517 5.44-3.776 8.256-3.776 5.248 0 7.872 2.795 7.872 8.384 0 1.493-.256 3.072-.768 4.736-.469 1.664-1.258 3.413-2.368 5.248a103.765 103.765 0 01-3.392 5.44 142.895 142.895 0 00-3.456 5.312c2.006-.341 4.224-.939 6.656-1.792a1.42 1.42 0 01.448-.064c.342 0 .512.15.512.448 0 .256-.234.49-.704.704-1.408.47-2.752.875-4.032 1.216-1.28.341-2.496.597-3.648.768-2.432 4.224-3.648 7.957-3.648 11.2 0 1.579.256 2.88.768 3.904.726 1.237 1.728 1.856 3.008 1.856 2.347 0 5.078-1.75 8.192-5.248 1.323-1.45 3.435-4.693 6.336-9.728.598-3.456 1.387-6.336 2.368-8.64 1.024-2.39 2.368-3.584 4.032-3.584 1.11 0 1.664.661 1.664 1.984 0 .683-.234 1.6-.704 2.752-.341.81-.746 1.6-1.216 2.368a38.113 38.113 0 01-1.344 2.24l-2.304 3.2c-1.024 2.73-1.536 5.483-1.536 8.256 0 .896.064 1.707.192 2.432.512 2.73 1.792 4.096 3.84 4.096 5.248 0 10.944-5.888 17.088-17.664 2.134-4.01 3.2-8.32 3.2-12.928 0-4.267-1.216-7.296-3.648-9.088-1.066-.81-2.581-1.216-4.544-1.216-2.09 0-3.626.576-4.608 1.728-.341.341-.64.512-.896.512s-.384-.107-.384-.32c0-.213.086-.405.256-.576 1.408-1.707 3.755-2.56 7.04-2.56 1.92 0 3.542.32 4.864.96 4.011 1.963 6.016 5.653 6.016 11.072 0 4.01-1.088 8.107-3.264 12.288a62.265 62.265 0 01-3.968 6.656c-1.408 2.048-2.901 3.883-4.48 5.504-4.309 4.565-8.533 6.848-12.672 6.848-3.285 0-5.354-1.408-6.208-4.224-.298-.939-.448-2.027-.448-3.264 0-1.11.128-2.261.384-3.456a55.769 55.769 0 01-2.432 3.328 29.507 29.507 0 01-2.368 2.688c-3.413 3.413-6.698 5.12-9.856 5.12zm-2.752-19.52l2.944-5.248c1.024-1.75 2.027-3.52 3.008-5.312 2.347-4.224 3.862-7.68 4.544-10.368.256-1.11.384-2.112.384-3.008 0-2.773-1.216-4.16-3.648-4.16-1.749 0-3.69.939-5.824 2.816-2.304 2.048-4.245 4.715-5.824 8-1.664 3.456-2.496 6.613-2.496 9.472 0 4.736 2.304 7.339 6.912 7.808zm67.507 7.102l8.75 1.468c-1.125 3.209-2.906 5.657-5.344 7.344-2.416 1.667-5.447 2.5-9.093 2.5-5.771 0-10.042-1.885-12.813-5.656-2.187-3.021-3.281-6.834-3.281-11.438 0-5.5 1.437-9.802 4.313-12.906 2.874-3.125 6.51-4.688 10.906-4.688 4.937 0 8.833 1.636 11.687 4.907 2.854 3.25 4.219 8.24 4.094 14.968h-22c.063 2.605.771 4.636 2.125 6.094 1.354 1.438 3.042 2.157 5.062 2.157 1.376 0 2.532-.376 3.469-1.126.938-.75 1.646-1.958 2.125-3.624zm.5-8.876c-.062-2.541-.718-4.468-1.968-5.78-1.25-1.334-2.771-2-4.563-2-1.917 0-3.5.697-4.75 2.093s-1.865 3.292-1.844 5.688h13.125zm22.469-3.624l-7.969-1.438c.896-3.208 2.438-5.583 4.625-7.125 2.188-1.542 5.438-2.313 9.75-2.313 3.917 0 6.834.47 8.75 1.407 1.917.916 3.261 2.093 4.031 3.531.792 1.417 1.188 4.031 1.188 7.844l-.094 10.25c0 2.916.136 5.073.406 6.468.292 1.376.823 2.855 1.594 4.438h-8.687c-.229-.583-.511-1.448-.844-2.594-.146-.52-.25-.864-.313-1.031-1.5 1.458-3.104 2.552-4.812 3.281-1.708.73-3.531 1.094-5.469 1.094-3.416 0-6.114-.927-8.093-2.781-1.959-1.854-2.938-4.198-2.938-7.032 0-1.874.448-3.541 1.344-5 .896-1.479 2.146-2.604 3.75-3.374 1.625-.792 3.958-1.48 7-2.063 4.104-.77 6.948-1.49 8.531-2.156v-.875c0-1.688-.417-2.886-1.25-3.594-.833-.73-2.406-1.094-4.719-1.094-1.562 0-2.781.313-3.656.938-.875.604-1.583 1.677-2.125 3.218zm11.75 7.125c-1.125.374-2.906.822-5.344 1.343-2.437.521-4.031 1.032-4.781 1.532-1.146.812-1.719 1.843-1.719 3.093 0 1.23.459 2.292 1.375 3.188.917.896 2.084 1.343 3.5 1.343 1.584 0 3.094-.52 4.532-1.562 1.062-.792 1.76-1.76 2.093-2.906.229-.75.344-2.177.344-4.282v-1.75zM281.094 55h-8.782V21.812h8.157v4.72c1.396-2.23 2.646-3.699 3.75-4.407 1.125-.708 2.396-1.063 3.812-1.063 2 0 3.927.553 5.781 1.657l-2.718 7.656c-1.479-.958-2.854-1.438-4.125-1.438-1.229 0-2.271.344-3.125 1.032-.854.666-1.532 1.885-2.032 3.656-.479 1.77-.718 5.48-.718 11.125V55zM130.012 87.848V101h-1.716V87.848h1.716zm4.228 0v1.427h-10.163v-1.427h10.163zM139.75 101h-2.746l.018-1.418h2.728c.939 0 1.722-.196 2.349-.587a3.669 3.669 0 001.409-1.663c.319-.716.479-1.553.479-2.51v-.805c0-.752-.091-1.42-.271-2.005-.181-.59-.446-1.087-.795-1.49-.35-.41-.777-.72-1.283-.93-.5-.212-1.075-.317-1.725-.317h-2.963v-1.427h2.963c.861 0 1.647.144 2.357.433a5.067 5.067 0 011.834 1.238 5.421 5.421 0 011.192 1.951c.277.759.416 1.614.416 2.565v.786c0 .952-.139 1.81-.416 2.575a5.371 5.371 0 01-1.201 1.942 5.24 5.24 0 01-1.879 1.237c-.729.283-1.551.425-2.466.425zm-1.816-13.152V101h-1.743V87.848h1.743zm13.622 6.874v1.373h-4.408v-1.373h4.408zm9.829 2.096h1.734c-.09.83-.328 1.574-.714 2.23a4.172 4.172 0 01-1.635 1.564c-.704.379-1.584.569-2.637.569-.771 0-1.473-.145-2.105-.434a4.676 4.676 0 01-1.617-1.228c-.452-.536-.801-1.178-1.048-1.925-.241-.752-.361-1.59-.361-2.51v-1.31c0-.922.12-1.756.361-2.503.247-.752.599-1.397 1.057-1.933a4.72 4.72 0 011.671-1.237c.65-.29 1.382-.434 2.195-.434.994 0 1.834.187 2.52.56.687.373 1.22.891 1.599 1.554.386.656.624 1.418.714 2.285h-1.734c-.085-.614-.241-1.141-.47-1.58a2.44 2.44 0 00-.976-1.03c-.421-.241-.972-.362-1.653-.362-.584 0-1.099.112-1.545.335-.439.222-.81.538-1.111.948-.295.41-.518.9-.668 1.472a7.467 7.467 0 00-.226 1.906v1.328c0 .645.066 1.25.199 1.816.138.566.346 1.063.623 1.49.277.428.629.765 1.057 1.012.428.241.933.362 1.518.362.74 0 1.33-.118 1.77-.353.44-.235.771-.572.994-1.012.229-.44.391-.966.488-1.58zm9.168-9.043V101h-1.671V89.862l-3.369 1.229v-1.509l4.778-1.807h.262zM102.244 77.582V79h-6.576v-1.418h6.576zm-6.233-11.734V79h-1.743V65.848h1.743zm9.792 3.378V79h-1.68v-9.774h1.68zm-1.806-2.593c0-.27.081-.5.243-.686.169-.187.416-.28.741-.28.319 0 .563.093.732.28a.966.966 0 01.262.686.943.943 0 01-.262.669c-.169.18-.413.271-.732.271-.325 0-.572-.09-.741-.271a.986.986 0 01-.243-.669zm10.18 9.775a1.4 1.4 0 00-.163-.669c-.102-.21-.316-.4-.641-.57-.319-.174-.801-.324-1.445-.45a11.502 11.502 0 01-1.473-.407 4.475 4.475 0 01-1.111-.57 2.38 2.38 0 01-.695-.785 2.187 2.187 0 01-.244-1.057c0-.386.084-.75.253-1.093.174-.343.418-.648.731-.913.32-.264.702-.472 1.148-.623.445-.15.942-.226 1.49-.226.783 0 1.451.139 2.005.416.555.277.979.647 1.274 1.111.295.458.443.967.443 1.527h-1.671a1.44 1.44 0 00-.244-.786 1.806 1.806 0 00-.696-.642c-.301-.168-.671-.253-1.111-.253-.464 0-.84.073-1.129.217-.283.139-.491.316-.623.533-.127.217-.19.446-.19.687 0 .18.03.343.09.487.067.139.181.269.344.389.162.114.391.223.686.325.295.103.672.205 1.129.307.801.18 1.461.398 1.978.65.518.254.904.564 1.157.931.253.367.379.813.379 1.337a2.59 2.59 0 01-1.039 2.096 3.808 3.808 0 01-1.192.596 5.331 5.331 0 01-1.545.208c-.861 0-1.59-.154-2.186-.461-.596-.307-1.048-.705-1.355-1.192a2.853 2.853 0 01-.46-1.545h1.68c.024.458.156.822.397 1.093.241.265.536.455.885.569.35.108.696.163 1.039.163.458 0 .84-.06 1.147-.181.314-.12.552-.286.714-.497.163-.21.244-.451.244-.722zm3.424-2.187v-.207c0-.705.102-1.358.307-1.96a4.65 4.65 0 01.885-1.581 3.945 3.945 0 011.4-1.048c.548-.253 1.162-.38 1.843-.38.686 0 1.304.127 1.852.38a3.934 3.934 0 011.409 1.048c.391.445.689.972.894 1.58.205.603.307 1.256.307 1.96v.208c0 .705-.102 1.358-.307 1.96a4.701 4.701 0 01-.894 1.582 4.102 4.102 0 01-1.4 1.047c-.542.247-1.157.37-1.843.37-.687 0-1.304-.123-1.852-.37a4.185 4.185 0 01-1.409-1.047 4.768 4.768 0 01-.885-1.581 6.046 6.046 0 01-.307-1.96zm1.671-.207v.207c0 .488.057.949.171 1.382.115.428.286.808.515 1.139.235.33.527.593.876.786.35.186.756.28 1.22.28.458 0 .858-.094 1.201-.28a2.52 2.52 0 00.868-.786c.228-.332.4-.71.514-1.139a5.12 5.12 0 00.181-1.382v-.207c0-.482-.06-.937-.181-1.364a3.521 3.521 0 00-.523-1.148 2.488 2.488 0 00-.868-.794c-.343-.193-.746-.29-1.21-.29-.458 0-.861.097-1.211.29a2.603 2.603 0 00-.867.794c-.229.332-.4.714-.515 1.148a5.275 5.275 0 00-.171 1.364zm10.993-2.701V79h-1.671v-9.774h1.581l.09 2.087zm-.397 2.43l-.696-.027a5.899 5.899 0 01.298-1.852 4.632 4.632 0 01.813-1.49 3.618 3.618 0 011.247-.976 3.68 3.68 0 011.617-.353c.481 0 .915.067 1.301.2.385.126.713.33.984.613.277.283.488.65.632 1.102.145.446.217.991.217 1.636V79h-1.68v-6.423c0-.511-.075-.921-.226-1.228a1.385 1.385 0 00-.659-.678c-.289-.144-.645-.216-1.066-.216a2.47 2.47 0 00-1.138.262c-.338.174-.63.415-.877.722a3.668 3.668 0 00-.767 2.304zm18.644.099h-3.514v-1.418h3.514c.681 0 1.232-.109 1.653-.325.422-.217.729-.518.922-.904.198-.385.298-.825.298-1.319 0-.451-.1-.876-.298-1.273a2.202 2.202 0 00-.922-.958c-.421-.247-.972-.37-1.653-.37h-3.107V79h-1.744V65.848h4.851c.994 0 1.834.171 2.52.514.687.344 1.208.82 1.563 1.428.356.602.533 1.291.533 2.068 0 .843-.177 1.563-.533 2.16-.355.596-.876 1.05-1.563 1.363-.686.308-1.526.461-2.52.461zm8.238-3.08V79h-1.671v-9.774h1.626l.045 1.536zm3.054-1.59l-.009 1.554a2.418 2.418 0 00-.398-.055 4.197 4.197 0 00-.415-.018c-.386 0-.726.06-1.021.181-.295.12-.545.289-.75.506a2.44 2.44 0 00-.488.777c-.114.295-.189.62-.225.975l-.47.271c0-.59.057-1.144.171-1.662.121-.518.305-.975.551-1.373.247-.403.561-.716.94-.94.385-.228.843-.343 1.373-.343.12 0 .259.016.416.046.156.024.264.05.325.08zm7.524 7.57v-7.516h1.681V79h-1.599l-.082-2.258zm.317-2.06l.695-.018c0 .65-.069 1.253-.208 1.807a3.872 3.872 0 01-.65 1.427 3.08 3.08 0 01-1.183.948c-.488.223-1.081.335-1.78.335a3.96 3.96 0 01-1.31-.208 2.617 2.617 0 01-1.011-.641c-.284-.29-.503-.666-.66-1.13-.15-.463-.226-1.02-.226-1.67v-6.306h1.671v6.323c0 .44.049.804.145 1.093.102.283.238.51.406.678.175.162.368.277.579.343.216.066.439.1.668.1.711 0 1.274-.136 1.689-.407.416-.277.714-.647.895-1.111.186-.47.28-.99.28-1.563zm6.883 2.81l2.674-8.266h1.707L175.395 79h-1.12l.253-1.508zm-2.231-8.266l2.755 8.31.189 1.464h-1.12l-3.541-9.774h1.717zm7.633 4.995v-.207c0-.705.102-1.358.307-1.96.205-.609.5-1.136.885-1.581a3.945 3.945 0 011.4-1.048c.548-.253 1.162-.38 1.843-.38.687 0 1.304.127 1.852.38a3.925 3.925 0 011.409 1.048c.391.445.69.972.894 1.58.205.603.307 1.256.307 1.96v.208c0 .705-.102 1.358-.307 1.96a4.684 4.684 0 01-.894 1.582 4.093 4.093 0 01-1.4 1.047c-.542.247-1.156.37-1.843.37-.686 0-1.304-.123-1.852-.37a4.195 4.195 0 01-1.409-1.047 4.786 4.786 0 01-.885-1.581 6.046 6.046 0 01-.307-1.96zm1.671-.207v.207c0 .488.057.949.171 1.382.115.428.287.808.515 1.139.235.33.527.593.877.786.349.186.755.28 1.219.28.458 0 .858-.094 1.201-.28a2.52 2.52 0 00.868-.786c.229-.332.4-.71.515-1.139.12-.433.18-.894.18-1.382v-.207c0-.482-.06-.937-.18-1.364a3.544 3.544 0 00-.524-1.148 2.488 2.488 0 00-.868-.794c-.343-.193-.746-.29-1.21-.29-.458 0-.861.097-1.21.29a2.596 2.596 0 00-.868.794 3.66 3.66 0 00-.515 1.148 5.275 5.275 0 00-.171 1.364zm15.013 2.394a1.4 1.4 0 00-.163-.669c-.102-.21-.316-.4-.641-.57-.319-.174-.801-.324-1.445-.45a11.502 11.502 0 01-1.473-.407 4.475 4.475 0 01-1.111-.57 2.38 2.38 0 01-.695-.785 2.187 2.187 0 01-.244-1.057c0-.386.084-.75.253-1.093.174-.343.418-.648.731-.913.32-.264.702-.472 1.148-.623.445-.15.942-.226 1.49-.226.783 0 1.451.139 2.005.416.555.277.979.647 1.274 1.111.295.458.443.967.443 1.527h-1.671a1.44 1.44 0 00-.244-.786 1.806 1.806 0 00-.696-.642c-.301-.168-.671-.253-1.111-.253-.464 0-.84.073-1.129.217-.283.139-.491.316-.623.533-.127.217-.19.446-.19.687 0 .18.03.343.09.487.067.139.181.269.344.389.162.114.391.223.686.325.295.103.672.205 1.129.307.801.18 1.461.398 1.979.65.517.254.903.564 1.156.931.253.367.379.813.379 1.337a2.59 2.59 0 01-1.039 2.096 3.808 3.808 0 01-1.192.596 5.331 5.331 0 01-1.545.208c-.861 0-1.59-.154-2.186-.461-.596-.307-1.048-.705-1.355-1.192a2.853 2.853 0 01-.46-1.545h1.68c.024.458.156.822.397 1.093.241.265.536.455.885.569.35.108.696.163 1.039.163.458 0 .84-.06 1.147-.181.314-.12.552-.286.714-.497.163-.21.244-.451.244-.722zm7.958-7.182v1.283h-5.284v-1.283h5.284zm-3.496-2.376h1.672v9.73c0 .33.051.58.153.749.102.169.235.28.398.334.162.054.337.081.524.081.138 0 .283-.012.433-.036.157-.03.274-.054.352-.072l.009 1.364a3.888 3.888 0 01-.523.117 3.984 3.984 0 01-.768.064 2.6 2.6 0 01-1.129-.244c-.344-.163-.618-.434-.822-.813-.199-.386-.299-.903-.299-1.554v-9.72z" fill="#1E1E1E"/></svg>