<svg width="286" height="50" fill="none" xmlns="http://www.w3.org/2000/svg"><path d="M8.438 22.031V48H.25V3.969h10.531L30.25 38.156c-.375-3.166-.563-6.031-.563-8.593V3.968h8.188V48H27.062L7.875 14.094c.188 1.646.323 3.135.406 4.469a44.46 44.46 0 01.156 3.468zm45.5 10.75c0 3.292.604 5.782 1.812 7.469 1.23 1.667 2.969 2.5 5.219 2.5 1.541 0 2.802-.333 3.781-1 1-.688 1.698-1.698 2.094-3.031l8.281.718c-2.396 6.126-7.26 9.188-14.594 9.188-5.083 0-8.99-1.5-11.718-4.5-2.73-3.02-4.094-7.417-4.094-13.188 0-5.583 1.385-9.875 4.156-12.875 2.77-3 6.698-4.5 11.781-4.5 4.854 0 8.563 1.615 11.125 4.844 2.563 3.209 3.844 7.917 3.844 14.125v.25H53.937zm13.187-5.5c-.167-2.729-.823-4.77-1.969-6.125-1.146-1.375-2.687-2.062-4.625-2.062-2.062 0-3.656.718-4.781 2.156-1.104 1.438-1.688 3.448-1.75 6.031h13.125zm28.438 8.469L87.624 48h-9.344l12.375-17.469-11.781-16.343h9.469l7.219 11.062 7.187-11.063h9.531L100.5 30.438 112.969 48h-9.531l-7.876-12.25zM134 47.5c-2.125.708-4.594 1.063-7.406 1.063-2.584 0-4.573-.698-5.969-2.094-1.396-1.417-2.094-3.552-2.094-6.407V20.125h-4.281v-5.938h4.719l2.75-7.937h5.5v7.938h6.406v5.937h-6.406v17.563c0 1.645.312 2.864.937 3.656.625.77 1.594 1.156 2.906 1.156.626 0 1.605-.146 2.938-.438V47.5zm13.901 2.356c-2.005 0-3.584-.768-4.736-2.304-1.024-1.408-1.536-3.285-1.536-5.632 0-2.901.982-6.379 2.944-10.432-6.144-.384-9.216-3.435-9.216-9.152 0-3.243 1.024-6.741 3.072-10.496A29.358 29.358 0 01140.861 8a19.793 19.793 0 012.944-3.264c2.688-2.517 5.44-3.776 8.256-3.776 5.248 0 7.872 2.795 7.872 8.384 0 1.493-.256 3.072-.768 4.736-.469 1.664-1.258 3.413-2.368 5.248a103.765 103.765 0 01-3.392 5.44 142.895 142.895 0 00-3.456 5.312c2.006-.341 4.224-.939 6.656-1.792a1.42 1.42 0 01.448-.064c.342 0 .512.15.512.448 0 .256-.234.49-.704.704-1.408.47-2.752.875-4.032 1.216-1.28.341-2.496.597-3.648.768-2.432 4.224-3.648 7.957-3.648 11.2 0 1.579.256 2.88.768 3.904.726 1.237 1.728 1.856 3.008 1.856 2.347 0 5.078-1.75 8.192-5.248 1.323-1.45 3.435-4.693 6.336-9.728.598-3.456 1.387-6.336 2.368-8.64 1.024-2.39 2.368-3.584 4.032-3.584 1.11 0 1.664.661 1.664 1.984 0 .683-.234 1.6-.704 2.752-.341.81-.746 1.6-1.216 2.368a38.113 38.113 0 01-1.344 2.24l-2.304 3.2c-1.024 2.73-1.536 5.483-1.536 8.256 0 .896.064 1.707.192 2.432.512 2.73 1.792 4.096 3.84 4.096 5.248 0 10.944-5.888 17.088-17.664 2.134-4.01 3.2-8.32 3.2-12.928 0-4.267-1.216-7.296-3.648-9.088-1.066-.81-2.581-1.216-4.544-1.216-2.09 0-3.626.576-4.608 1.728-.341.341-.64.512-.896.512s-.384-.107-.384-.32c0-.213.086-.405.256-.576 1.408-1.707 3.755-2.56 7.04-2.56 1.92 0 3.542.32 4.864.96 4.011 1.963 6.016 5.653 6.016 11.072 0 4.01-1.088 8.107-3.264 12.288a62.265 62.265 0 01-3.968 6.656c-1.408 2.048-2.901 3.883-4.48 5.504-4.309 4.565-8.533 6.848-12.672 6.848-3.285 0-5.354-1.408-6.208-4.224-.298-.939-.448-2.027-.448-3.264 0-1.11.128-2.261.384-3.456a55.769 55.769 0 01-2.432 3.328 29.507 29.507 0 01-2.368 2.688c-3.413 3.413-6.698 5.12-9.856 5.12zm-2.752-19.52l2.944-5.248c1.024-1.75 2.027-3.52 3.008-5.312 2.347-4.224 3.862-7.68 4.544-10.368.256-1.11.384-2.112.384-3.008 0-2.773-1.216-4.16-3.648-4.16-1.749 0-3.69.939-5.824 2.816-2.304 2.048-4.245 4.715-5.824 8-1.664 3.456-2.496 6.613-2.496 9.472 0 4.736 2.304 7.339 6.912 7.808zm67.507 7.102l8.75 1.468c-1.125 3.209-2.906 5.657-5.344 7.344-2.416 1.667-5.447 2.5-9.093 2.5-5.771 0-10.042-1.885-12.813-5.656-2.187-3.021-3.281-6.834-3.281-11.438 0-5.5 1.437-9.802 4.313-12.906 2.874-3.125 6.51-4.688 10.906-4.688 4.937 0 8.833 1.636 11.687 4.907 2.854 3.25 4.219 8.24 4.094 14.968h-22c.063 2.605.771 4.636 2.125 6.094 1.354 1.438 3.042 2.157 5.062 2.157 1.376 0 2.532-.376 3.469-1.126.938-.75 1.646-1.958 2.125-3.624zm.5-8.876c-.062-2.541-.718-4.468-1.968-5.78-1.25-1.334-2.771-2-4.563-2-1.917 0-3.5.697-4.75 2.093s-1.865 3.292-1.844 5.688h13.125zm22.469-3.625l-7.969-1.437c.896-3.208 2.438-5.583 4.625-7.125 2.188-1.542 5.438-2.313 9.75-2.313 3.917 0 6.834.47 8.75 1.407 1.917.916 3.261 2.094 4.031 3.531.792 1.417 1.188 4.031 1.188 7.844l-.094 10.25c0 2.916.136 5.073.406 6.468.292 1.376.823 2.855 1.594 4.438h-8.687c-.229-.583-.511-1.448-.844-2.594-.146-.52-.25-.864-.313-1.031-1.5 1.458-3.104 2.552-4.812 3.281-1.708.73-3.531 1.094-5.469 1.094-3.416 0-6.114-.927-8.093-2.781-1.959-1.854-2.938-4.198-2.938-7.032 0-1.874.448-3.541 1.344-5 .896-1.479 2.146-2.604 3.75-3.374 1.625-.792 3.958-1.48 7-2.063 4.104-.77 6.948-1.49 8.531-2.156v-.875c0-1.688-.417-2.886-1.25-3.594-.833-.73-2.406-1.094-4.719-1.094-1.562 0-2.781.313-3.656.938-.875.604-1.583 1.677-2.125 3.218zm11.75 7.125c-1.125.376-2.906.823-5.344 1.344-2.437.521-4.031 1.032-4.781 1.532-1.146.812-1.719 1.843-1.719 3.093 0 1.23.459 2.292 1.375 3.188.917.896 2.084 1.343 3.5 1.343 1.584 0 3.094-.52 4.532-1.562 1.062-.792 1.76-1.76 2.093-2.906.229-.75.344-2.177.344-4.282v-1.75zM273.094 48h-8.782V14.812h8.157v4.72c1.396-2.23 2.646-3.699 3.75-4.407 1.125-.708 2.396-1.063 3.812-1.063 2 0 3.927.553 5.781 1.657l-2.718 7.656c-1.479-.958-2.854-1.438-4.125-1.438-1.229 0-2.271.344-3.125 1.032-.854.666-1.532 1.885-2.032 3.656-.479 1.77-.718 5.48-.718 11.125V48z" fill="#ADFF2F"/></svg>