<svg width="54" height="26" fill="none" xmlns="http://www.w3.org/2000/svg"><path d="M4.979 11.204V25H.629V1.608h5.595L16.566 19.77c-.199-1.682-.298-3.204-.298-4.565V1.608h4.35V25h-5.745L4.68 6.987c.1.875.171 1.666.216 2.374.055.698.083 1.312.083 1.843zm24.916 14.782c-1.066 0-1.904-.408-2.516-1.224-.544-.748-.816-1.745-.816-2.992 0-1.541.521-3.389 1.564-5.542-3.264-.204-4.896-1.825-4.896-4.862 0-1.723.544-3.581 1.632-5.576.385-.725.816-1.405 1.292-2.04.476-.657.997-1.235 1.564-1.734C29.147.679 30.609.01 32.105.01c2.788 0 4.182 1.485 4.182 4.454 0 .793-.136 1.632-.408 2.516-.25.884-.669 1.813-1.258 2.788a55.475 55.475 0 01-1.802 2.89c-.635.93-1.247 1.87-1.836 2.822 1.065-.181 2.244-.499 3.536-.952a.752.752 0 01.238-.034c.181 0 .272.08.272.238 0 .136-.125.26-.374.374-.748.25-1.462.465-2.142.646a17.51 17.51 0 01-1.938.408c-1.292 2.244-1.938 4.227-1.938 5.95 0 .839.136 1.53.408 2.074.385.657.918.986 1.598.986 1.247 0 2.697-.93 4.352-2.788.703-.77 1.825-2.493 3.366-5.168.317-1.836.736-3.366 1.258-4.59.544-1.27 1.258-1.904 2.142-1.904.59 0 .884.351.884 1.054 0 .363-.125.85-.374 1.462a9.42 9.42 0 01-.646 1.258c-.227.408-.465.805-.714 1.19l-1.224 1.7a12.409 12.409 0 00-.816 4.386c0 .476.034.907.102 1.292.272 1.45.952 2.176 2.04 2.176 2.788 0 5.814-3.128 9.078-9.384 1.133-2.13 1.7-4.42 1.7-6.868 0-2.267-.646-3.876-1.938-4.828-.567-.43-1.372-.646-2.414-.646-1.11 0-1.927.306-2.448.918-.181.181-.34.272-.476.272-.136 0-.204-.057-.204-.17 0-.113.045-.215.136-.306.748-.907 1.994-1.36 3.74-1.36 1.02 0 1.881.17 2.584.51 2.13 1.043 3.196 3.003 3.196 5.882 0 2.13-.578 4.307-1.734 6.528a33.104 33.104 0 01-2.108 3.536 22.225 22.225 0 01-2.38 2.924c-2.29 2.425-4.533 3.638-6.732 3.638-1.745 0-2.845-.748-3.298-2.244-.159-.499-.238-1.077-.238-1.734 0-.59.068-1.201.204-1.836a29.86 29.86 0 01-1.292 1.768c-.408.521-.828.997-1.258 1.428-1.813 1.813-3.559 2.72-5.236 2.72zm-1.462-10.37l1.564-2.788c.544-.93 1.076-1.87 1.598-2.822 1.247-2.244 2.051-4.08 2.414-5.508.136-.59.204-1.122.204-1.598 0-1.473-.646-2.21-1.938-2.21-.93 0-1.96.499-3.094 1.496-1.224 1.088-2.256 2.505-3.094 4.25-.884 1.836-1.326 3.513-1.326 5.032 0 2.516 1.224 3.899 3.672 4.148z" fill="#ADFF2F"/></svg>