<svg width="228" height="102" fill="none" xmlns="http://www.w3.org/2000/svg"><path d="M38.471 20.906c0 3.939-.796 7.385-2.39 10.34-1.576 2.935-3.805 5.218-6.687 6.847-2.864 1.63-6.23 2.444-10.098 2.444-3.956 0-7.358-.788-10.205-2.363-2.846-1.594-5.03-3.858-6.552-6.795C1.017 28.443.256 24.952.256 20.906c0-4.046.752-7.51 2.256-10.393C4.034 7.63 6.218 5.428 9.064 3.906c2.865-1.54 6.294-2.31 10.286-2.31 4.01 0 7.44.78 10.286 2.337 2.846 1.54 5.03 3.75 6.552 6.633 1.522 2.883 2.283 6.33 2.283 10.34zm-8.083 0c0-4.082-.967-7.278-2.9-9.588-1.934-2.327-4.647-3.49-8.138-3.49-3.545 0-6.284 1.154-8.218 3.463-1.933 2.292-2.9 5.497-2.9 9.615 0 2.757.448 5.138 1.343 7.143.895 2.006 2.166 3.554 3.813 4.646 1.665 1.075 3.635 1.612 5.908 1.612 3.545 0 6.276-1.164 8.191-3.492 1.934-2.327 2.9-5.63 2.9-9.91zM58.452 39.57c-1.826.609-3.948.913-6.365.913-2.22 0-3.93-.6-5.13-1.799-1.199-1.217-1.799-3.052-1.799-5.505V16.045H41.48v-5.103h4.055l2.364-6.82h4.726v6.82h5.505v5.103h-5.505v15.093c0 1.414.269 2.461.806 3.142.537.662 1.37.993 2.497.993.537 0 1.379-.125 2.525-.376v4.673zm11.95-22.827c1.02-2.22 2.301-3.831 3.84-4.834 1.54-1.002 3.376-1.504 5.506-1.504 3.08 0 5.443.95 7.09 2.847 1.647 1.898 2.47 4.673 2.47 8.325V40H81.79V23.726c0-2.56-.43-4.476-1.289-5.747-.86-1.272-2.157-1.907-3.894-1.907-1.826 0-3.303.788-4.431 2.363-1.11 1.558-1.665 3.563-1.665 6.016V40h-7.547V.146h7.547v10.877a69.642 69.642 0 01-.108 3.84 33.078 33.078 0 01-.107 1.88h.107zm32.415 10.178c0 2.83.519 4.969 1.558 6.419 1.056 1.432 2.551 2.148 4.484 2.148 1.325 0 2.408-.286 3.25-.86.859-.59 1.459-1.458 1.799-2.604l7.117.618c-2.059 5.263-6.24 7.895-12.542 7.895-4.368 0-7.725-1.289-10.07-3.867-2.346-2.596-3.519-6.374-3.519-11.333 0-4.798 1.191-8.486 3.572-11.064 2.381-2.579 5.756-3.868 10.125-3.868 4.171 0 7.358 1.388 9.56 4.163 2.203 2.757 3.304 6.803 3.304 12.138v.215h-18.638zm11.333-4.726c-.143-2.346-.707-4.1-1.692-5.264-.985-1.182-2.31-1.772-3.975-1.772-1.772 0-3.142.617-4.108 1.853-.949 1.235-1.451 2.963-1.504 5.183h11.279zm20.598 3.545V40h-7.546V17.764c0-1.594-.027-2.919-.081-3.975a90.557 90.557 0 00-.134-2.847h7.197c.036.162.072.52.108 1.075.035.555.071 1.181.107 1.88.036.68.063 1.324.08 1.933.036.609.054 1.047.054 1.316h.108c.716-2.005 1.369-3.447 1.96-4.324.573-.841 1.253-1.459 2.041-1.853.788-.394 1.773-.59 2.954-.59.967 0 1.746.134 2.337.402v6.311c-1.2-.268-2.274-.402-3.223-.402-1.88 0-3.348.76-4.404 2.282-1.039 1.522-1.558 3.778-1.558 6.768zM32.805 64.138c0 2.453-.564 4.628-1.692 6.526-1.11 1.88-2.695 3.357-4.754 4.431-2.059 1.056-4.511 1.585-7.358 1.585h-9.4V90H1.68V52.16h17c4.53 0 8.012 1.048 10.447 3.143 2.452 2.077 3.679 5.022 3.679 8.835zm-7.976.134c0-3.974-2.346-5.962-7.037-5.962h-8.19v12.273h8.405c2.185 0 3.867-.537 5.05-1.61 1.18-1.093 1.772-2.66 1.772-4.7zM46.07 75.74V90h-7.546V67.764a80.75 80.75 0 00-.08-3.975 90.81 90.81 0 00-.135-2.847h7.197c.036.161.072.52.108 1.075.036.555.071 1.181.107 1.88.036.68.063 1.324.08 1.933.037.609.054 1.047.054 1.316h.108c.716-2.005 1.37-3.447 1.96-4.324.573-.841 1.254-1.459 2.041-1.853.788-.394 1.773-.59 2.954-.59.967 0 1.746.134 2.337.402v6.311c-1.2-.268-2.274-.403-3.223-.403-1.88 0-3.348.761-4.404 2.283-1.038 1.522-1.558 3.778-1.558 6.768zm41.492-.296c0 4.709-1.307 8.406-3.92 11.092-2.615 2.667-6.231 4.001-10.85 4.001-4.53 0-8.084-1.343-10.662-4.028-2.578-2.686-3.867-6.374-3.867-11.065 0-4.672 1.289-8.343 3.867-11.01 2.578-2.686 6.186-4.029 10.823-4.029 4.744 0 8.36 1.298 10.85 3.894 2.506 2.578 3.759 6.293 3.759 11.145zm-7.895 0c0-3.455-.565-5.962-1.692-7.52-1.128-1.557-2.766-2.336-4.915-2.336-2.292 0-4.01.824-5.156 2.471-1.146 1.63-1.719 4.091-1.719 7.385 0 3.24.555 5.712 1.665 7.412 1.128 1.683 2.748 2.525 4.86 2.525 2.328 0 4.065-.824 5.21-2.47 1.165-1.666 1.746-4.154 1.746-7.467zm8.75 25.776c-3.593 0-5.39-1.247-5.39-3.74a5.9 5.9 0 01.165-1.32c.697-3.483 4.052-6.38 10.065-8.69 1.907-.733 3.997-1.375 6.27-1.925 2.274-.587 4.749-1.082 7.425-1.485a82.818 82.818 0 002.42-4.62 151.02 151.02 0 002.915-6.215 331.363 331.363 0 012.97-6.435 228.249 228.249 0 001.815-3.685 60.16 60.16 0 012.2-3.96c.734-1.137 1.449-2.108 2.145-2.915 1.687-2.017 3.612-3.41 5.775-4.18a23.832 23.832 0 00-2.915-.275c-.99-.073-2.053-.11-3.19-.11-6.71 0-11.476.825-14.3 2.475-1.906 1.137-3.355 2.328-4.345 3.575-1.063 1.357-1.595 2.548-1.595 3.575 0 1.283.77 2.072 2.31 2.365.514.11 1.009.165 1.485.165 1.834 0 3.685-.458 5.555-1.375 1.87-.843 3.429-1.888 4.675-3.135.074-.073.147-.11.22-.11.147 0 .239.073.275.22.037.11 0 .257-.11.44a11.362 11.362 0 01-2.145 2.035 16.936 16.936 0 01-2.915 1.705c-2.2 1.027-4.326 1.54-6.38 1.54-1.613 0-3.006-.367-4.18-1.1-1.393-.843-2.09-2.017-2.09-3.52 0-1.357.569-2.677 1.705-3.96 3.41-3.923 10.12-5.885 20.13-5.885 1.614 0 3.172.055 4.675.165 1.504.11 2.97.293 4.4.55 1.394-.403 2.53-.605 3.41-.605 1.797 0 2.695.477 2.695 1.43 0 .44-.256.825-.77 1.155-.476.293-1.063.44-1.76.44-.403 0-.898-.11-1.485-.33-.55-.22-1.21-.568-1.98-1.045-1.796.66-3.226 1.797-4.29 3.41-.77 1.137-1.723 3.263-2.86 6.38-1.1 3.043-1.961 5.408-2.585 7.095-.586 1.687-.953 2.695-1.1 3.025a140.03 140.03 0 01-2.53 5.995 80.709 80.709 0 01-2.53 5.06 55.104 55.104 0 013.96-.165c.477 0 .917.018 1.32.055.404 0 .789.018 1.155.055.44.037.66.147.66.33 0 .293-.275.44-.825.44-2.126-.037-4.418.073-6.875.33-4.876 8.543-10.688 13.805-17.435 15.785-2.2.66-4.271.99-6.215.99zm-.055-1.32c1.65 0 3.484-.513 5.5-1.54 4.437-2.273 8.562-6.637 12.375-13.09-6.856 1.247-12.246 3.007-16.17 5.28-3.63 2.127-5.445 4.308-5.445 6.545 0 1.87 1.247 2.805 3.74 2.805zm52.025-18.977l7.519 1.262c-.967 2.757-2.497 4.86-4.592 6.311-2.077 1.432-4.682 2.148-7.815 2.148-4.959 0-8.63-1.62-11.011-4.86-1.88-2.596-2.82-5.873-2.82-9.83 0-4.726 1.236-8.423 3.706-11.09 2.471-2.686 5.595-4.029 9.373-4.029 4.243 0 7.591 1.405 10.044 4.216 2.453 2.793 3.625 7.081 3.518 12.864h-18.906c.054 2.238.662 3.984 1.826 5.237 1.164 1.235 2.614 1.853 4.351 1.853 1.181 0 2.175-.322 2.981-.967.805-.644 1.414-1.683 1.826-3.115zm.429-7.627c-.053-2.184-.617-3.84-1.692-4.968-1.074-1.146-2.381-1.72-3.92-1.72-1.648 0-3.008.6-4.082 1.8-1.075 1.2-1.603 2.829-1.585 4.888h11.279zm38.538-3.384l-7.439 1.343c-.251-1.486-.824-2.605-1.719-3.357-.877-.752-2.023-1.128-3.437-1.128-1.88 0-3.384.654-4.512 1.96-1.11 1.29-1.665 3.456-1.665 6.5 0 3.383.564 5.773 1.692 7.17 1.146 1.396 2.676 2.095 4.592 2.095 1.432 0 2.605-.403 3.518-1.209.913-.823 1.558-2.229 1.934-4.216l7.412 1.262c-.77 3.402-2.247 5.97-4.431 7.708-2.184 1.736-5.112 2.604-8.782 2.604-4.171 0-7.502-1.315-9.99-3.947-2.471-2.632-3.706-6.276-3.706-10.93 0-4.71 1.244-8.37 3.733-10.984 2.488-2.632 5.854-3.948 10.097-3.948 3.474 0 6.231.752 8.272 2.256 2.059 1.486 3.536 3.76 4.431 6.821zm18.826-8.433v6.016h-5.157V78.99c0 2.328.045 3.688.135 4.082.107.376.331.69.671.94.358.25.788.376 1.289.376.698 0 1.71-.242 3.035-.725l.644 5.855c-1.754.752-3.742 1.127-5.962 1.127-1.36 0-2.587-.223-3.679-.67-1.092-.466-1.898-1.057-2.417-1.773-.501-.734-.85-1.72-1.047-2.954-.161-.878-.242-2.65-.242-5.318V67.495h-3.464V61.48h3.464v-5.666l7.573-4.404v10.07h5.157zm2.578 20.384l7.573-1.155c.322 1.468.976 2.587 1.96 3.357.985.752 2.364 1.128 4.136 1.128 1.952 0 3.42-.358 4.405-1.074.662-.502.993-1.173.993-2.014 0-.573-.179-1.048-.537-1.424-.376-.358-1.217-.69-2.524-.993-6.088-1.343-9.946-2.57-11.575-3.68-2.256-1.54-3.384-3.679-3.384-6.418 0-2.47.976-4.548 2.927-6.23 1.952-1.684 4.978-2.525 9.078-2.525 3.903 0 6.803.636 8.701 1.907 1.898 1.27 3.204 3.15 3.921 5.64l-7.117 1.315c-.304-1.11-.886-1.96-1.746-2.551-.841-.59-2.05-.886-3.625-.886-1.987 0-3.411.277-4.27.832-.573.394-.86.904-.86 1.531 0 .537.251.994.752 1.37.681.501 3.026 1.208 7.037 2.121 4.028.913 6.839 2.032 8.432 3.357 1.576 1.343 2.363 3.214 2.363 5.613 0 2.614-1.092 4.86-3.276 6.74-2.184 1.88-5.416 2.82-9.695 2.82-3.885 0-6.964-.787-9.238-2.363-2.256-1.575-3.733-3.715-4.431-6.418z" fill="#ADFF2F"/></svg>