<svg width="260" height="95" fill="none" xmlns="http://www.w3.org/2000/svg"><path d="M10.602 25.632V40H2.679V2.16h18.906c4.512 0 7.994.976 10.447 2.928 2.453 1.933 3.68 4.718 3.68 8.352 0 2.65-.753 4.941-2.256 6.875-1.504 1.916-3.536 3.178-6.097 3.787L37.591 40h-8.916l-8.781-14.368h-9.292zm17.133-11.87c0-1.808-.581-3.169-1.745-4.082-1.164-.913-2.91-1.37-5.237-1.37H10.602v11.172h10.366c2.22 0 3.903-.5 5.049-1.503 1.145-1.003 1.718-2.409 1.718-4.217zm42.459 11.682c0 4.709-1.307 8.406-3.921 11.092-2.614 2.667-6.23 4.001-10.85 4.001-4.53 0-8.083-1.343-10.661-4.028-2.578-2.686-3.867-6.374-3.867-11.065 0-4.672 1.289-8.343 3.867-11.01 2.578-2.686 6.185-4.029 10.822-4.029 4.745 0 8.361 1.298 10.85 3.894 2.507 2.578 3.76 6.293 3.76 11.145zm-7.896 0c0-3.455-.564-5.962-1.692-7.52-1.128-1.557-2.766-2.336-4.914-2.336-2.292 0-4.01.824-5.156 2.471-1.146 1.63-1.72 4.091-1.72 7.385 0 3.24.556 5.712 1.666 7.412 1.128 1.683 2.748 2.525 4.86 2.525 2.328 0 4.065-.824 5.21-2.47 1.165-1.666 1.746-4.155 1.746-7.467zm41.411-.08c0 4.798-.966 8.53-2.9 11.198-1.916 2.65-4.664 3.975-8.245 3.975-2.058 0-3.84-.447-5.344-1.343-1.504-.895-2.659-2.184-3.464-3.867h-.054c0 .412-.018.949-.054 1.611-.035.663-.08 1.29-.134 1.88-.054.573-.116.967-.188 1.182h-7.331c.071-.842.125-1.808.16-2.9.037-1.11.055-2.355.055-3.733V.147h7.546v11.118c0 .787-.018 1.575-.054 2.363l-.054 2.363h.108c.841-1.862 2.04-3.258 3.599-4.19 1.557-.93 3.455-1.396 5.693-1.396 3.437 0 6.07 1.307 7.895 3.921 1.844 2.596 2.766 6.275 2.766 11.038zm-7.868 0c0-3.294-.484-5.738-1.45-7.332-.967-1.593-2.462-2.39-4.485-2.39-2.041 0-3.599.86-4.673 2.578-1.056 1.701-1.585 4.163-1.585 7.386 0 3.079.52 5.478 1.558 7.197 1.056 1.719 2.605 2.578 4.646 2.578 2.005 0 3.5-.833 4.485-2.498 1.002-1.665 1.504-4.171 1.504-7.52zm20.222 1.557c0 2.83.519 4.969 1.558 6.419 1.056 1.432 2.551 2.148 4.484 2.148 1.325 0 2.409-.286 3.25-.86.859-.59 1.459-1.458 1.799-2.604l7.117.618c-2.059 5.263-6.239 7.895-12.542 7.895-4.368 0-7.725-1.289-10.07-3.867-2.346-2.596-3.518-6.374-3.518-11.333 0-4.798 1.19-8.486 3.571-11.064 2.382-2.579 5.756-3.868 10.125-3.868 4.171 0 7.358 1.388 9.56 4.163 2.203 2.757 3.304 6.803 3.304 12.138v.215h-18.638zm11.333-4.726c-.143-2.346-.707-4.1-1.692-5.264-.985-1.182-2.309-1.772-3.975-1.772-1.772 0-3.142.617-4.108 1.853-.949 1.235-1.451 2.963-1.504 5.183h11.279zm20.598 3.545V40h-7.546V17.764c0-1.594-.027-2.919-.081-3.975a90.557 90.557 0 00-.134-2.847h7.197c.036.162.072.52.108 1.075.035.555.071 1.181.107 1.88.036.68.063 1.324.081 1.933.035.609.053 1.047.053 1.316h.108c.716-2.005 1.369-3.447 1.96-4.324.573-.841 1.253-1.459 2.041-1.853.788-.394 1.773-.59 2.954-.59.967 0 1.746.134 2.337.402v6.311c-1.2-.268-2.274-.402-3.223-.402-1.88 0-3.348.76-4.404 2.282-1.039 1.522-1.558 3.778-1.558 6.768zm27.688 13.83c-1.826.609-3.948.913-6.365.913-2.22 0-3.929-.6-5.129-1.799-1.2-1.217-1.799-3.052-1.799-5.505V16.045h-3.68v-5.103h4.056l2.363-6.82h4.726v6.82h5.506v5.103h-5.506v15.093c0 1.414.269 2.461.806 3.142.537.662 1.37.993 2.498.993.537 0 1.378-.125 2.524-.376v4.673zM31.012 83.796V90H.638v-5.613l20.464-26.023H2.68v-6.203h27.232v5.505L9.447 83.796h21.565zm11.682-6.875c0 2.83.52 4.969 1.557 6.419 1.057 1.432 2.552 2.148 4.485 2.148 1.325 0 2.408-.286 3.25-.86.86-.59 1.459-1.458 1.8-2.604l7.116.618c-2.06 5.263-6.24 7.895-12.542 7.895-4.368 0-7.725-1.289-10.07-3.867-2.346-2.596-3.518-6.374-3.518-11.333 0-4.798 1.19-8.486 3.571-11.065 2.381-2.578 5.756-3.867 10.125-3.867 4.171 0 7.358 1.388 9.56 4.163 2.203 2.757 3.303 6.803 3.303 12.139v.214H42.694zm11.333-4.726c-.143-2.346-.707-4.1-1.692-5.264-.985-1.181-2.31-1.772-3.975-1.772-1.772 0-3.142.617-4.108 1.853-.95 1.235-1.45 2.963-1.504 5.183h11.279zm20.598 2.229V90h-7.546V67.441c0-1.557-.027-2.828-.081-3.813a83.961 83.961 0 00-.134-2.686h7.197c.036.215.08.725.134 1.531.054.788.099 1.603.135 2.444.053.824.08 1.423.08 1.8h.108c.93-2.22 2.085-3.832 3.464-4.835 1.396-1.002 3.061-1.504 4.995-1.504 2.22 0 4.001.529 5.344 1.585 1.361 1.056 2.274 2.64 2.74 4.753h.16c.985-2.256 2.167-3.876 3.546-4.86 1.378-.985 3.133-1.478 5.263-1.478 2.829 0 4.986.967 6.472 2.9 1.486 1.917 2.229 4.674 2.229 8.272V90h-7.492V73.699c0-2.56-.367-4.476-1.101-5.747-.734-1.272-1.835-1.907-3.303-1.907-1.469 0-2.695.716-3.68 2.148-.984 1.415-1.477 3.375-1.477 5.882V90h-7.492V73.699c0-2.56-.368-4.476-1.102-5.747-.734-1.272-1.835-1.907-3.303-1.907-1.522 0-2.766.779-3.733 2.336-.949 1.558-1.423 3.572-1.423 6.043zm47.615 2.497c0 2.83.519 4.969 1.557 6.419 1.057 1.432 2.552 2.148 4.485 2.148 1.325 0 2.408-.286 3.25-.86.859-.59 1.459-1.458 1.799-2.604l7.117.618c-2.059 5.263-6.24 7.895-12.542 7.895-4.368 0-7.725-1.289-10.071-3.867-2.345-2.596-3.518-6.374-3.518-11.333 0-4.798 1.191-8.486 3.572-11.065 2.381-2.578 5.756-3.867 10.125-3.867 4.171 0 7.358 1.388 9.56 4.163 2.202 2.757 3.303 6.803 3.303 12.139v.214H122.24zm11.333-4.726c-.143-2.346-.707-4.1-1.692-5.264-.985-1.181-2.31-1.772-3.975-1.772-1.772 0-3.142.617-4.109 1.853-.949 1.235-1.45 2.963-1.504 5.183h11.28zm24.446 21.93c-3.63 0-6.38-1.1-8.25-3.3-1.613-1.87-2.42-4.418-2.42-7.645 0-2.163.349-4.363 1.045-6.6.697-2.273 1.705-4.547 3.025-6.82a13.336 13.336 0 01-5.555-3.575c-1.576-1.723-2.365-3.612-2.365-5.665 0-2.383 1.082-4.18 3.245-5.39 1.724-.953 3.74-1.43 6.05-1.43 4.034 0 7.554 1.302 10.56 3.905 5.464-3.41 10.909-5.115 16.335-5.115 4.987 0 7.48 1.32 7.48 3.96 0 2.567-2.035 5.335-6.105 8.305-5.72 4.18-12.888 6.27-21.505 6.27-.586 0-1.173-.018-1.76-.055a21.371 21.371 0 01-1.595-.165c-3.043 4.877-4.565 9.387-4.565 13.53 0 2.383.514 4.308 1.54 5.775 1.32 1.907 3.319 2.86 5.995 2.86 4.877 0 9.699-2.86 14.465-8.58 2.42-2.933 3.63-5.5 3.63-7.7 0-2.017-1.045-3.025-3.135-3.025-2.31 0-5.206 1.265-8.69 3.795-3.08 2.273-5.353 4.565-6.82 6.875-.11.183-.238.275-.385.275-.256 0-.385-.183-.385-.55 0-.147.019-.238.055-.275 1.137-2.53 3.319-5.023 6.545-7.48 3.3-2.493 6.27-3.74 8.91-3.74 1.76 0 3.099.55 4.015 1.65.844 1.063 1.265 2.347 1.265 3.85 0 1.247-.238 2.53-.715 3.85-.476 1.32-1.246 2.622-2.31 3.905-2.016 2.567-4.638 4.583-7.865 6.05-3.3 1.503-6.545 2.255-9.735 2.255zm1.65-24.475c1.87 0 3.759-.165 5.665-.495 5.244-.99 10.194-3.172 14.85-6.545 3.117-2.237 4.675-4.492 4.675-6.765 0-1.503-1.246-2.255-3.74-2.255-4.84 0-9.973 2.182-15.4 6.545.33.477.642.953.935 1.43.294.477.569.972.825 1.485.147.257.074.422-.22.495h-.165c-.293 0-.495-.11-.605-.33a21.42 21.42 0 00-.715-.935 22.719 22.719 0 00-1.045-1.32c-2.97 2.567-5.518 5.408-7.645 8.525.88.11 1.742.165 2.585.165zm-7.37-1.32c2.53-3.887 5.794-7.187 9.79-9.9-3.153-2.493-6.471-3.74-9.955-3.74-1.723 0-3.208.422-4.455 1.265-1.466 1.027-2.2 2.512-2.2 4.455 0 3.593 2.274 6.233 6.82 7.92zM189.239 90V50.63h7.546v20.893l8.836-10.043h9.292l-9.749 10.42L215.611 90h-8.137l-7.171-12.81-3.518 3.68V90h-7.546zm30.884-32.388V50.63h7.546v6.982h-7.546zm0 32.388V61.48h7.546V90h-7.546zm12.648-8.137l7.574-1.155c.322 1.468.975 2.587 1.96 3.357.985.752 2.363 1.128 4.136 1.128 1.951 0 3.42-.358 4.404-1.074.663-.502.994-1.173.994-2.014 0-.573-.179-1.048-.537-1.424-.376-.358-1.218-.69-2.525-.993-6.087-1.343-9.945-2.57-11.574-3.68-2.256-1.54-3.384-3.679-3.384-6.418 0-2.47.976-4.548 2.927-6.23 1.952-1.684 4.977-2.525 9.077-2.525 3.903 0 6.804.636 8.701 1.907 1.898 1.27 3.205 3.15 3.921 5.64l-7.116 1.315c-.305-1.11-.887-1.96-1.746-2.551-.841-.59-2.05-.886-3.625-.886-1.988 0-3.411.277-4.27.832-.573.394-.86.904-.86 1.531 0 .537.251.994.752 1.37.68.501 3.026 1.208 7.036 2.121 4.029.913 6.839 2.032 8.433 3.357 1.575 1.343 2.363 3.214 2.363 5.613 0 2.614-1.092 4.86-3.276 6.74-2.185 1.88-5.416 2.82-9.695 2.82-3.885 0-6.965-.787-9.238-2.363-2.256-1.575-3.733-3.715-4.432-6.418z" fill="#ADFF2F"/></svg>