<svg width="221" height="96" fill="none" xmlns="http://www.w3.org/2000/svg"><path d="M34.939 8.284V40h-7.922V8.284h-12.22V2.16h32.388v6.123H34.94zM53.791 26.92c0 2.83.52 4.969 1.558 6.419 1.056 1.432 2.551 2.148 4.485 2.148 1.325 0 2.408-.286 3.25-.86.859-.59 1.459-1.458 1.799-2.604l7.117.618c-2.06 5.263-6.24 7.895-12.542 7.895-4.368 0-7.725-1.289-10.07-3.867-2.346-2.596-3.519-6.374-3.519-11.333 0-4.798 1.19-8.486 3.572-11.064 2.381-2.579 5.756-3.868 10.124-3.868 4.172 0 7.359 1.388 9.561 4.163 2.202 2.757 3.303 6.803 3.303 12.138v.215H53.791zm11.334-4.726c-.144-2.346-.708-4.1-1.692-5.264-.985-1.182-2.31-1.772-3.975-1.772-1.773 0-3.142.617-4.109 1.853-.949 1.235-1.45 2.963-1.504 5.183h11.28zm25.163 18.342c-4.404 0-7.806-1.307-10.205-3.92-2.4-2.633-3.599-6.294-3.599-10.985 0-4.798 1.209-8.53 3.626-11.198 2.417-2.686 5.845-4.029 10.285-4.029 3.42 0 6.249.86 8.487 2.578 2.238 1.72 3.643 4.091 4.216 7.117l-7.6.376c-.215-1.486-.752-2.668-1.611-3.545-.86-.895-2.077-1.343-3.653-1.343-1.951 0-3.41.815-4.377 2.444-.967 1.612-1.45 4.046-1.45 7.305 0 3.348.492 5.863 1.477 7.546 1.002 1.665 2.488 2.498 4.458 2.498 1.432 0 2.632-.448 3.598-1.343.967-.913 1.567-2.265 1.8-4.055l7.573.349c-.269 2.041-.994 3.831-2.175 5.371-1.164 1.522-2.677 2.712-4.539 3.572-1.862.841-3.966 1.262-6.31 1.262zm25.942-23.794c1.021-2.22 2.301-3.831 3.841-4.834 1.54-1.002 3.375-1.504 5.505-1.504 3.08 0 5.443.95 7.09 2.847 1.647 1.898 2.471 4.673 2.471 8.325V40h-7.52V23.726c0-2.56-.429-4.476-1.289-5.747-.859-1.272-2.157-1.907-3.894-1.907-1.826 0-3.303.788-4.431 2.363-1.11 1.558-1.665 3.563-1.665 6.016V40h-7.546V.146h7.546v10.877a69.255 69.255 0 01-.108 3.84 32.005 32.005 0 01-.107 1.88h.107zm33.731 7.68V40h-7.546V17.441c0-1.557-.027-2.828-.081-3.813a86.734 86.734 0 00-.134-2.686h7.197c.036.215.081.726.134 1.531.054.788.099 1.602.135 2.444.053.824.08 1.423.08 1.8h.108c1.02-2.22 2.3-3.832 3.84-4.835 1.54-1.002 3.375-1.504 5.505-1.504 3.08 0 5.443.95 7.09 2.847 1.647 1.898 2.471 4.673 2.471 8.325V40h-7.52V23.699c0-2.56-.429-4.476-1.289-5.747-.859-1.272-2.157-1.907-3.894-1.907-1.826 0-3.303.788-4.431 2.363-1.11 1.558-1.665 3.563-1.665 6.016zm53.684 1.021c0 4.709-1.307 8.406-3.921 11.092-2.614 2.667-6.23 4.001-10.849 4.001-4.53 0-8.084-1.343-10.662-4.028-2.578-2.686-3.867-6.374-3.867-11.065 0-4.672 1.289-8.343 3.867-11.01 2.578-2.686 6.186-4.029 10.823-4.029 4.744 0 8.361 1.298 10.849 3.894 2.507 2.578 3.76 6.293 3.76 11.145zm-7.895 0c0-3.455-.564-5.962-1.692-7.52-1.128-1.557-2.766-2.336-4.915-2.336-2.292 0-4.01.824-5.156 2.471-1.146 1.63-1.719 4.091-1.719 7.385 0 3.24.555 5.712 1.665 7.412 1.128 1.683 2.748 2.525 4.861 2.525 2.327 0 4.064-.824 5.21-2.47 1.164-1.666 1.746-4.155 1.746-7.467zM8.153 76.116V90H.231V52.16h27.903v6.124H8.154v11.709h19.362v6.123H8.153zM40.73 90.537c-2.81 0-5.004-.76-6.58-2.283-1.575-1.54-2.363-3.697-2.363-6.472 0-3.008.976-5.29 2.927-6.848 1.97-1.558 4.816-2.372 8.54-2.444l6.258-.107v-1.477c0-1.898-.332-3.303-.994-4.217-.662-.93-1.745-1.396-3.25-1.396-1.396 0-2.425.322-3.088.967-.644.626-1.047 1.674-1.208 3.142l-7.869-.376c.985-5.747 5.147-8.62 12.488-8.62 3.67 0 6.499.903 8.486 2.712 1.987 1.808 2.981 4.377 2.981 7.707v10.581c0 1.63.18 2.757.537 3.384.376.609.994.913 1.853.913.573 0 1.128-.054 1.665-.161v4.082c-.93.233-1.727.403-2.39.51-.662.126-1.477.188-2.444.188-1.898 0-3.303-.465-4.216-1.396-.895-.931-1.432-2.3-1.611-4.11h-.161c-1.057 1.899-2.382 3.331-3.975 4.298-1.593.949-3.456 1.423-5.586 1.423zm8.782-13.992l-3.867.054c-1.773.09-3.017.278-3.733.564-.734.322-1.298.806-1.692 1.45-.376.645-.564 1.504-.564 2.578 0 1.379.313 2.408.94 3.089.644.662 1.495.993 2.551.993a5.81 5.81 0 003.25-.966c.966-.645 1.727-1.531 2.282-2.66a8.213 8.213 0 00.833-3.625v-1.477zM75.42 95.06c-4.18 0-7.48-.733-9.9-2.2-2.383-1.503-3.575-3.465-3.575-5.885 0-2.677 1.32-5.188 3.96-7.535 2.823-2.493 6.527-4.18 11.11-5.06.623-.11 1.283-.202 1.98-.275.697-.073 1.393-.11 2.09-.11 4.253 0 7.132 1.027 8.635 3.08.147.183.22.422.22.715 0 .587-.165.678-.495.275-1.32-1.87-4.198-2.805-8.635-2.805-1.393 0-2.64.11-3.74.33-3.85.733-6.912 2.182-9.185 4.345-2.163 2.053-3.245 4.235-3.245 6.545 0 2.2.99 3.96 2.97 5.28 1.943 1.32 4.583 1.98 7.92 1.98 3.153 0 6.068-.385 8.745-1.155 2.677-.733 5.133-1.778 7.37-3.135 3.667-2.237 5.5-5.207 5.5-8.91 0-4.253-2.658-8.085-7.975-11.495a86.89 86.89 0 01-3.41-2.31c-.917-.697-1.632-1.283-2.145-1.76-1.943-1.87-2.915-3.85-2.915-5.94 0-.55.055-1.063.165-1.54.513-2.383 2.108-4.308 4.785-5.775 2.457-1.357 5.115-2.035 7.975-2.035 3.263 0 5.738.568 7.425 1.705 1.21.807 1.815 2.035 1.815 3.685 0 1.063-.312 2.053-.935 2.97-.587.88-1.357 1.32-2.31 1.32-.697 0-1.32-.275-1.87-.825a2.328 2.328 0 01-.715-1.705c0-1.76.862-2.64 2.585-2.64 1.027 0 1.65.33 1.87.99.183-.99-.202-1.852-1.155-2.585-1.503-1.173-3.465-1.76-5.885-1.76-2.53 0-4.84.715-6.93 2.145-2.237 1.503-3.355 3.245-3.355 5.225 0 2.567 2.347 5.207 7.04 7.92 6.563 3.74 9.845 8.067 9.845 12.98 0 2.163-.697 4.253-2.09 6.27-1.393 2.053-3.245 3.74-5.555 5.06-5.28 3.08-11.275 4.62-17.985 4.62zm43.131-28.317c1.02-2.22 2.3-3.831 3.84-4.834 1.54-1.002 3.375-1.504 5.505-1.504 3.08 0 5.443.95 7.09 2.847 1.647 1.898 2.471 4.673 2.471 8.325V90h-7.519V73.726c0-2.56-.43-4.476-1.29-5.748-.859-1.27-2.157-1.906-3.894-1.906-1.826 0-3.303.787-4.431 2.363-1.11 1.558-1.665 3.563-1.665 6.016V90h-7.546V50.147h7.546v10.876a69.255 69.255 0 01-.107 3.84 32.897 32.897 0 01-.108 1.88h.108zm33.73-16.596v5.559h-7.546v-5.56h7.546zm0 10.795V90h-7.546V60.942h7.546zm35.369 14.502c0 4.709-1.307 8.406-3.921 11.092-2.614 2.667-6.23 4.001-10.85 4.001-4.529 0-8.083-1.343-10.661-4.028-2.578-2.686-3.867-6.374-3.867-11.065 0-4.672 1.289-8.343 3.867-11.01 2.578-2.686 6.185-4.029 10.823-4.029 4.744 0 8.361 1.298 10.849 3.894 2.507 2.578 3.76 6.293 3.76 11.145zm-7.896 0c0-3.455-.564-5.962-1.692-7.52-1.127-1.557-2.766-2.336-4.914-2.336-2.292 0-4.01.824-5.156 2.471-1.146 1.63-1.719 4.091-1.719 7.385 0 3.24.555 5.712 1.665 7.412 1.128 1.683 2.748 2.525 4.861 2.525 2.327 0 4.064-.824 5.21-2.47 1.164-1.666 1.745-4.154 1.745-7.467zm21.458-1.02V90h-7.546V67.441c0-1.557-.027-2.828-.081-3.813a86.734 86.734 0 00-.134-2.686h7.197c.036.215.081.725.134 1.531.054.788.099 1.603.135 2.444.053.824.08 1.423.08 1.8h.107c1.021-2.22 2.301-3.832 3.841-4.835 1.54-1.002 3.375-1.504 5.505-1.504 3.08 0 5.443.95 7.09 2.847 1.647 1.898 2.471 4.673 2.471 8.325V90h-7.52V73.699c0-2.56-.429-4.476-1.289-5.747-.859-1.272-2.157-1.907-3.894-1.907-1.826 0-3.303.788-4.431 2.363-1.11 1.558-1.665 3.563-1.665 6.016z" fill="#ADFF2F"/></svg>