<svg width="228" height="107" fill="none" xmlns="http://www.w3.org/2000/svg"><path d="M18.37 23.934L8.861 39H.483L13.59 19.1 1.584 1.16h8.38l8.405 13.375L26.775 1.16H35.1L23.606 19.1 36.201 39h-8.325l-9.507-15.066zm39.96 9.4a20.38 20.38 0 005.989-.887c1.933-.609 3.428-1.378 4.485-2.31v-5.236h-9.239v-5.855h16.49v13.912c-2.006 2.058-4.62 3.67-7.842 4.834-3.205 1.163-6.57 1.745-10.098 1.745-4.1 0-7.582-.76-10.447-2.283-2.846-1.54-5.013-3.768-6.499-6.687-1.486-2.936-2.229-6.49-2.229-10.661 0-6.23 1.666-11.002 4.995-14.314 3.33-3.33 8.12-4.995 14.368-4.995 4.44 0 8.075.823 10.904 2.47 2.828 1.63 4.843 4.091 6.042 7.386l-7.305 2.202c-.787-1.916-2.023-3.366-3.706-4.35-1.683-.986-3.661-1.478-5.935-1.478-3.724 0-6.552 1.128-8.486 3.384-1.934 2.256-2.9 5.487-2.9 9.695 0 4.279.993 7.59 2.98 9.936 2.006 2.328 4.817 3.492 8.433 3.492zm-36.684 50a20.38 20.38 0 005.988-.887c1.934-.609 3.429-1.378 4.485-2.31v-5.236h-9.238v-5.855h16.49v13.911c-2.006 2.06-4.62 3.67-7.843 4.835-3.204 1.163-6.57 1.745-10.097 1.745-4.1 0-7.583-.76-10.447-2.283-2.847-1.54-5.013-3.768-6.5-6.687C3 77.631 2.257 74.077 2.257 69.906c0-6.23 1.665-11.002 4.995-14.314 3.33-3.33 8.12-4.995 14.368-4.995 4.44 0 8.074.823 10.903 2.47 2.829 1.63 4.843 4.091 6.043 7.386l-7.305 2.202c-.788-1.916-2.023-3.366-3.706-4.35-1.683-.986-3.662-1.478-5.935-1.478-3.724 0-6.553 1.128-8.487 3.384-1.933 2.256-2.9 5.487-2.9 9.695 0 4.279.994 7.59 2.98 9.936 2.006 2.328 4.817 3.492 8.433 3.492zm32.548-8.594V89h-7.546V66.764c0-1.594-.027-2.919-.08-3.975a90.783 90.783 0 00-.135-2.847h7.197c.036.161.072.52.108 1.075.036.555.071 1.181.107 1.88.036.68.063 1.324.08 1.933.037.609.055 1.047.055 1.316h.107c.716-2.005 1.37-3.447 1.96-4.324.573-.841 1.254-1.459 2.041-1.853.788-.394 1.773-.59 2.954-.59.967 0 1.746.134 2.337.402v6.311c-1.2-.268-2.274-.403-3.223-.403-1.88 0-3.348.761-4.404 2.283-1.038 1.522-1.558 3.778-1.558 6.768zm21.431-25.593V89h-7.546V49.147h7.546zm28.029 57.673c-1.504 0-2.787-.348-3.85-1.045-1.284-.77-1.925-1.907-1.925-3.41 0-2.677 1.1-4.015 3.3-4.015.696 0 1.301.257 1.815.77.403.44.605.99.605 1.65 0 .88-.33 1.595-.99 2.145-.587.55-1.247.825-1.98.825-.734 0-1.357-.275-1.87-.825.183 1.21 1.228 1.815 3.135 1.815 3.85 0 7.645-2.713 11.385-8.14 3.483-5.06 6.618-10.835 9.405-17.325-4.584 6.673-9.167 10.01-13.75 10.01-3.704 0-6.472-1.027-8.305-3.08-1.614-1.833-2.42-4.308-2.42-7.425 0-4.327 1.356-8.617 4.07-12.87-1.907-.843-3.502-1.943-4.785-3.3-1.32-1.503-1.98-3.062-1.98-4.675 0-2.31 1.063-4.088 3.19-5.335 1.576-.953 3.465-1.43 5.665-1.43 3.776 0 7.058 1.228 9.845 3.685 5.353-3.08 10.523-4.62 15.51-4.62 4.51 0 6.765 1.173 6.765 3.52 0 2.383-1.962 4.987-5.885 7.81-5.427 3.85-12.119 5.775-20.075 5.775a29.05 29.05 0 01-1.815-.055 24.458 24.458 0 01-1.705-.165c-3.117 4.877-4.675 9.277-4.675 13.2 0 2.383.623 4.198 1.87 5.445 1.283 1.283 2.86 1.925 4.73 1.925 2.786 0 5.573-1.283 8.36-3.85 1.723-1.613 3.758-4.07 6.105-7.37l.22-.385c.11-1.503.183-2.292.22-2.365a9.334 9.334 0 01.33-1.595c.146-.513.33-1.008.55-1.485.733-1.393 1.613-2.09 2.64-2.09 1.026 0 1.54.605 1.54 1.815 0 1.32-.734 2.878-2.2 4.675a6.782 6.782 0 01-.715.825 31.72 31.72 0 01-1.045.99c-.184.073-.459.66-.825 1.76a361.846 361.846 0 00-2.035 6.765 144.775 144.775 0 01-2.035 6.765c-.844 2.53-1.962 4.73-3.355 6.6-1.357 1.87-2.915 3.465-4.675 4.785-2.897 2.2-5.684 3.3-8.36 3.3zm7.04-40.7c1.723 0 3.465-.165 5.225-.495a35.063 35.063 0 007.15-2.2 33.771 33.771 0 006.765-3.85c.55-.403 1.063-.843 1.54-1.32a15.64 15.64 0 001.485-1.595c1.026-1.283 1.54-2.402 1.54-3.355 0-1.357-1.137-2.035-3.41-2.035-4.987 0-9.919 1.888-14.795 5.665.806.953 1.448 1.98 1.925 3.08.11.22.018.367-.275.44h-.165c-.257 0-.44-.092-.55-.275-.404-.623-1.027-1.467-1.87-2.53-2.787 2.347-5.262 5.097-7.425 8.25.513.073.99.128 1.43.165.476.037.953.055 1.43.055zm-7.535-1.54c2.53-3.483 5.811-6.49 9.845-9.02-2.824-2.163-5.757-3.245-8.8-3.245-1.614 0-3.007.385-4.18 1.155-1.467.953-2.2 2.383-2.2 4.29 0 3.007 1.778 5.28 5.335 6.82zm60.681-4.638L153.125 89h-9.024l-10.393-29.058h7.976l5.076 16.248c.143.448.367 1.235.671 2.363.322 1.11.734 2.56 1.236 4.35l.429-1.503c.233-.752.484-1.576.752-2.47.269-.896.501-1.648.698-2.257l5.398-16.73h7.896zm11.655 13.482V89h-7.546V66.441c0-1.557-.027-2.828-.081-3.813a83.715 83.715 0 00-.134-2.686h7.197c.036.215.081.725.134 1.531.054.788.099 1.602.135 2.444.053.824.08 1.423.08 1.8h.108c1.02-2.22 2.3-3.832 3.84-4.835 1.54-1.002 3.375-1.504 5.505-1.504 3.08 0 5.443.95 7.09 2.847 1.647 1.898 2.471 4.673 2.471 8.325V89h-7.52V72.699c0-2.56-.429-4.476-1.289-5.747-.859-1.272-2.157-1.907-3.894-1.907-1.826 0-3.303.788-4.431 2.363-1.11 1.558-1.665 3.563-1.665 6.016zm38.242 27.231c-3.545 0-6.4-.68-8.567-2.04-2.148-1.343-3.473-3.268-3.974-5.775l7.546-.886c.269 1.164.842 2.077 1.719 2.74.895.662 2.059.993 3.491.993 2.095 0 3.626-.644 4.592-1.934.967-1.289 1.451-3.204 1.451-5.747l.053-4.404h-.053c-.824 1.79-2.015 3.133-3.572 4.028-1.558.878-3.482 1.316-5.774 1.316-3.384 0-6.007-1.27-7.869-3.813-1.862-2.542-2.793-6.177-2.793-10.903 0-4.745.958-8.406 2.874-10.984 1.916-2.579 4.7-3.868 8.352-3.868 2.113 0 3.894.44 5.344 1.316 1.468.86 2.614 2.167 3.438 3.921h.134c0-.43.018-.967.054-1.611.035-.645.08-1.262.134-1.853.072-.59.134-.994.188-1.209h7.143a123.128 123.128 0 00-.161 6.714v21.458c0 4.135-1.172 7.26-3.518 9.372-2.345 2.113-5.756 3.169-10.232 3.169zm6.311-26.587c0-2.99-.537-5.317-1.611-6.982-1.056-1.683-2.569-2.525-4.539-2.525-2.005 0-3.518.806-4.538 2.417-1.003 1.612-1.504 4.029-1.504 7.252 0 3.15.492 5.523 1.477 7.116 1.003 1.576 2.507 2.364 4.512 2.364 2.005 0 3.536-.833 4.592-2.498 1.074-1.683 1.611-4.064 1.611-7.144z" fill="#ADFF2F"/></svg>